<?xml version="1.0" standalone="no"?>
<!DOCTYPE svg PUBLIC "-//W3C//DTD SVG 1.1//EN" "http://www.w3.org/Graphics/SVG/1.1/DTD/svg11.dtd" >
<svg xmlns="http://www.w3.org/2000/svg" xmlns:xlink="http://www.w3.org/1999/xlink" version="1.1">
<metadata>
Created by FontForge 20161013 at Wed Nov 17 15:47:59 1999
 By ,,,
URW Software, Copyright 1994 by URW
</metadata>
<defs>
<font id="NimbusSanTConBold" horiz-adv-x="1024" >
  <font-face 
    font-family="NimbusSanTConBold"
    font-weight="400"
    font-stretch="normal"
    units-per-em="2048"
    panose-1="0 0 4 0 0 0 0 0 0 0"
    ascent="1638"
    descent="-410"
    x-height="1035"
    cap-height="1365"
    bbox="-273 -512 1532 1943"
    underline-thickness="192"
    underline-position="-496"
    unicode-range="U+0020-F002"
  />
<missing-glyph 
d="M128 0v1943h768v-1943h-768zM256 128h512v1687h-512v-1687z" />
    <glyph glyph-name=".notdef" 
d="M128 0v1943h768v-1943h-768zM256 128h512v1687h-512v-1687z" />
    <glyph glyph-name=".null" horiz-adv-x="0" 
 />
    <glyph glyph-name="glyph2" horiz-adv-x="382" 
 />
    <glyph glyph-name="space" unicode=" " horiz-adv-x="382" 
 />
    <glyph glyph-name="exclam" unicode="!" horiz-adv-x="438" 
d="M293 345h-149l-31 185v835h212v-835zM325 253v-253h-212v253h212z" />
    <glyph glyph-name="quotedbl" unicode="&#x22;" horiz-adv-x="692" 
d="M271 806h-158l-38 559h233zM579 806h-158l-37 559h233z" />
    <glyph glyph-name="numbersign" unicode="#" horiz-adv-x="833" 
d="M749 569l-22 -155h-121l-65 -414h-168l69 414h-140l-66 -414h-157l66 414h-122l22 155h122l41 254h-120l22 155h120l60 387h160l-63 -387h143l61 387h162l-61 -387h117l-22 -155h-118l-40 -254h120zM506 823h-140l-39 -254h140z" />
    <glyph glyph-name="dollar" unicode="$" horiz-adv-x="833" 
d="M464 -11v-166h-106v167q-207 18 -264 191q-24 73 -24 185v120h205v-120q0 -195 137 -195q132 0 132 146q0 113 -107 209l-162 146q-95 85 -141 155q-59 89 -59 221q0 302 283 330v138h106v-141q259 -32 259 -330v-112h-205v112q0 150 -120 150q-111 0 -111 -136
q0 -97 104 -187l167 -145q113 -98 158 -178q54 -95 54 -227q0 -218 -152 -295q-57 -29 -154 -38z" />
    <glyph glyph-name="percent" unicode="%" horiz-adv-x="1122" 
d="M452 1096v-146q0 -133 -15 -176q-38 -107 -177 -107q-105 0 -152 60q-40 51 -40 223v146q0 135 15 177q38 106 177 106q106 0 152 -60q40 -52 40 -223zM205 1140v-234q0 -119 55 -119t55 119v234q0 120 -55 120t-55 -120zM962 1365l-681 -1365h-123l682 1365h122z
M1054 415v-146q0 -137 -14 -177q-37 -106 -178 -106q-105 0 -152 60q-40 51 -40 223v146q0 135 15 177q37 106 177 106q106 0 152 -60q40 -52 40 -223zM807 459v-234q0 -119 55 -119t55 119v234q0 119 -55 119t-55 -119z" />
    <glyph glyph-name="ampersand" unicode="&#x26;" horiz-adv-x="995" 
d="M756 784h179q-13 -307 -108 -519l125 -265h-242l-38 81q-52 -40 -88 -58q-68 -34 -150 -34q-169 0 -267 120q-92 111 -92 284t105 303q54 67 146 144q-89 175 -89 278q0 119 84 192q79 69 200 69q120 0 198 -66q84 -69 84 -187q0 -108 -77 -199q-42 -50 -138 -143
l122 -264q28 86 46 264zM505 959q45 45 64 72q31 44 31 95q0 83 -76 83q-35 0 -58 -23.5t-23 -58.5q0 -47 62 -168zM417 642q-117 -110 -117 -248q0 -75 36 -132q42 -67 113 -67q80 0 134 82z" />
    <glyph glyph-name="quotesingle" unicode="'" horiz-adv-x="384" 
d="M271 806h-158l-38 559h233z" />
    <glyph glyph-name="parenleft" unicode="(" horiz-adv-x="486" 
d="M398 1386v-198q-41 -19 -55.5 -54.5t-14.5 -158.5v-920q0 -95 5 -120q13 -68 65 -93v-198q-165 33 -240 148q-69 106 -69 454v538q0 371 87 479q76 94 222 123z" />
    <glyph glyph-name="parenright" unicode=")" horiz-adv-x="486" 
d="M89 -356v198q53 25 65 92q5 25 5 121v920q0 95 -5 120q-13 68 -65 93v198q165 -33 240 -148q69 -106 69 -454v-538q0 -370 -88 -479q-76 -94 -221 -123z" />
    <glyph glyph-name="asterisk" unicode="*" horiz-adv-x="673" 
d="M223 1082l-144 42l46 141l141 -50l-4 150h149l-5 -150l142 50l46 -141l-144 -42l91 -119l-120 -88l-85 124l-85 -123l-120 87z" />
    <glyph glyph-name="plus" unicode="+" horiz-adv-x="833" 
d="M758 759v-153h-263v-263h-157v263h-264v153h264v264h157v-264h263z" />
    <glyph glyph-name="comma" unicode="," horiz-adv-x="390" 
d="M304 253v-253l-218 -214v113l100 101h-100v253h218z" />
    <glyph glyph-name="hyphen" unicode="-" horiz-adv-x="344" 
d="M344 632v-191h-344v191h344z" />
    <glyph glyph-name="hyphen" unicode="&#x2010;" horiz-adv-x="344" 
d="M344 632v-191h-344v191h344z" />
    <glyph glyph-name="period" unicode="." horiz-adv-x="390" 
d="M304 253v-253h-218v253h218z" />
    <glyph glyph-name="slash" unicode="/" horiz-adv-x="556" 
d="M518 1365l-435 -1700h-131l435 1700h131z" />
    <glyph glyph-name="zero" unicode="0" horiz-adv-x="833" 
d="M758 946v-527q0 -223 -55 -311q-80 -128 -286 -128q-207 0 -287 128q-55 88 -55 311v527q0 223 55 311q80 128 287 128q206 0 286 -128q55 -88 55 -311zM314 961v-557q0 -136 19 -185q21 -55 84 -55q61 0 83 55q19 48 19 185v557q0 137 -19 185q-22 55 -83 55
q-62 0 -84 -55q-19 -48 -19 -185z" />
    <glyph glyph-name="one" unicode="1" horiz-adv-x="833" 
d="M572 1365v-1365h-225v1117h-154v153q132 7 171 95h208z" />
    <glyph glyph-name="two" unicode="2" horiz-adv-x="833" 
d="M748 212v-212h-666q-1 19 -1 28q0 312 148 539q43 65 163 214q74 91 98 140q28 57 28 125q0 148 -101 148q-102 0 -102 -170v-130h-229v95q0 186 59 272q85 124 279 124q156 0 244 -90.5t88 -247.5q0 -106 -42 -193q-31 -65 -128 -185q-153 -190 -197 -275
q-47 -92 -62 -182h421z" />
    <glyph glyph-name="three" unicode="3" horiz-adv-x="833" 
d="M296 637v184h51q99 0 131 42q27 36 27 140q0 89 -11 127q-22 71 -89 71q-96 0 -96 -155v-83h-216v73q0 177 66 259q74 90 248 90q178 0 255 -95q68 -86 68 -268q0 -141 -28 -201q-22 -46 -89 -89q127 -48 142 -197q7 -69 7 -148q0 -157 -27 -228q-68 -179 -311 -179
q-183 0 -269 92q-69 74 -69 253v152h223v-130q0 -85 16 -123q25 -60 97 -60t97 56q18 41 18 146q0 132 -11 174q-18 69 -76 87q-32 10 -94 10h-60z" />
    <glyph glyph-name="four" unicode="4" horiz-adv-x="833" 
d="M464 296h-389v183l389 886h212v-886h99v-183h-99v-296h-212v296zM464 479v246q0 173 13 284q-29 -88 -104 -272l-106 -258h197z" />
    <glyph glyph-name="five" unicode="5" horiz-adv-x="833" 
d="M305 1167v-271q81 44 158 44q184 0 247 -140q41 -91 41 -329q0 -195 -16 -261q-55 -230 -324 -230q-171 0 -256 90q-70 74 -70 246v161h218v-125q0 -188 104 -188q79 0 101 75q18 61 18 223q0 135 -9 180q-23 114 -108 114q-88 0 -106 -112h-203v721h625v-198h-420z" />
    <glyph glyph-name="six" unicode="6" horiz-adv-x="833" 
d="M737 1054h-225v27q0 133 -103 133q-106 0 -106 -156v-171q75 54 170 54q182 0 247 -140q42 -91 42 -331q0 -179 -15 -247q-53 -243 -330 -243q-181 0 -265 101q-57 68 -73 190q-8 58 -8 208v407q0 247 24 314q66 185 320 185q322 0 322 -292v-39zM418 757
q-85 0 -107 -116q-8 -41 -8 -181q0 -141 8 -181q22 -115 109 -115t109 111q8 39 8 178q0 188 -22 242q-25 62 -97 62z" />
    <glyph glyph-name="seven" unicode="7" horiz-adv-x="833" 
d="M79 1365h681v-182q-124 -252 -194 -611q-67 -342 -66 -572h-261q20 279 93 578q83 340 196 575h-449v212z" />
    <glyph glyph-name="eight" unicode="8" horiz-adv-x="833" 
d="M580 746q149 -49 171 -182q9 -54 9 -155q0 -174 -25 -243q-67 -186 -319 -186q-187 0 -271 102q-73 89 -73 327q0 140 18 195q24 72 89 111q27 16 73 31q-78 24 -112 73q-45 64 -45 228q0 176 71 255q76 83 250 83q254 0 305 -181q16 -60 16 -155q0 -175 -53 -240
q-35 -42 -104 -63zM415 1214q-46 0 -67 -26q-28 -34 -28 -162t28 -162q21 -26 68 -26t68 26q28 34 28 157q0 100 -11 135q-18 58 -86 58zM414 647q-80 0 -105 -88q-12 -44 -12 -154q0 -111 12 -154q25 -87 107 -87q81 0 106 85q13 43 13 152q0 115 -12 158q-25 88 -109 88z
" />
    <glyph glyph-name="nine" unicode="9" horiz-adv-x="833" 
d="M93 311h225v-27q0 -133 103 -133q106 0 106 156v172q-75 -55 -170 -55q-159 0 -226 118q-63 111 -63 376q0 220 50 318q76 149 302 149q287 0 326 -241q13 -81 13 -190v-495q0 -210 -20 -277q-60 -202 -319 -202q-327 0 -327 292v39zM408 1201q-84 0 -107 -117
q-8 -41 -8 -180t8 -181q23 -115 109 -115q85 0 108 112q9 42 9 177q0 147 -8 186q-22 118 -111 118z" />
    <glyph glyph-name="colon" unicode=":" horiz-adv-x="390" 
d="M304 1035v-253h-218v253h218zM304 253v-253h-218v253h218z" />
    <glyph glyph-name="semicolon" unicode=";" horiz-adv-x="390" 
d="M304 253v-253l-218 -214v113l100 101h-100v253h218zM304 1035v-253h-218v253h218z" />
    <glyph glyph-name="less" unicode="&#x3c;" 
d="M955 1219v-211l-662 -315l662 -316v-209l-887 436v180z" />
    <glyph glyph-name="equal" unicode="=" horiz-adv-x="833" 
d="M758 853v-153h-683v153h683zM758 587v-153h-683v153h683z" />
    <glyph glyph-name="greater" unicode="&#x3e;" 
d="M69 168v210l663 315l-663 316v209l887 -436v-179z" />
    <glyph glyph-name="question" unicode="?" horiz-adv-x="777" 
d="M386 355h-200q1 80 24 145q36 101 117 211l90 122q53 72 63 94q21 47 21 102q0 145 -115 145t-115 -138v-82h-205v119q0 306 309 306q165 0 257 -86q94 -89 94 -253q0 -171 -178 -393l-98 -122q-38 -47 -50 -95q-5 -20 -14 -75zM389 253v-253h-212v253h212z" />
    <glyph glyph-name="at" unicode="@" horiz-adv-x="1326" 
d="M1051 220l43 -139q-190 -102 -398 -102q-284 0 -453 213q-157 198 -157 489q0 304 173.5 504.5t423.5 200.5q226 0 384 -158q173 -173 173 -445q0 -244 -141 -401q-80 -89 -184 -89q-73 0 -110 46q-14 18 -28 52q-78 -92 -171 -92q-112 0 -174 103q-53 87 -53 206
q0 142 73 258q83 133 218 133q95 0 142 -94l16 72h144l-78 -410q-11 -58 -11 -83q0 -58 54 -58q41 0 80 59q82 125 82 294q0 195 -107 326q-116 141 -306 141q-189 0 -315 -156q-136 -168 -136 -410q0 -230 113 -385q126 -175 347 -175q181 0 356 100zM679 843
q-58 0 -101 -78q-37 -67 -37 -156q0 -167 89 -167q60 0 99 88q31 70 31 167q0 146 -81 146z" />
    <glyph glyph-name="A" unicode="A" horiz-adv-x="802" 
d="M495 365h-198l-49 -365h-230l217 1365h306l244 -1365h-231zM467 563l-37 231q-20 124 -42 359q-17 -223 -35 -359l-31 -231h145z" />
    <glyph glyph-name="B" unicode="B" horiz-adv-x="848" 
d="M102 0v1365h283q162 0 226 -26q139 -56 139 -336q0 -153 -34 -218q-25 -48 -100 -71q93 -26 123 -89q35 -74 35 -244q0 -231 -87 -312q-74 -69 -316 -69h-269zM338 804h75q75 0 98 56q14 34 14 125q0 93 -13 126q-23 56 -99 56h-75v-363zM338 198h41q100 0 132 55
q24 40 24 151q0 110 -24 149q-33 53 -132 53h-41v-408z" />
    <glyph glyph-name="C" unicode="C" horiz-adv-x="826" 
d="M774 918h-235v77q0 116 -17 154q-20 45 -87 45q-80 0 -103 -77q-10 -35 -10 -145v-578q0 -110 10 -145q22 -78 103 -78q66 0 87 46q17 37 17 154v127h235v-38q0 -200 -20 -274q-56 -206 -323 -206q-204 0 -284 115q-44 63 -56 176q-5 51 -5 189v446q0 200 20 274
q56 205 328 205q306 0 332 -247q8 -77 8 -191v-29z" />
    <glyph glyph-name="D" unicode="D" horiz-adv-x="882" 
d="M102 0v1365h306q177 0 244 -28q103 -43 130 -176q14 -70 14 -269v-438q0 -221 -22 -289q-38 -118 -151 -148q-63 -17 -215 -17h-306zM338 182h56q104 0 138 47q28 38 28 169v571q0 131 -28 169q-34 47 -138 47h-56v-1003z" />
    <glyph glyph-name="E" unicode="E" horiz-adv-x="812" 
d="M734 1365v-218h-396v-347h374v-198h-374v-384h419v-218h-655v1365h632z" />
    <glyph glyph-name="F" unicode="F" horiz-adv-x="756" 
d="M736 1365v-212h-398v-350h361v-198h-361v-605h-236v1365h634z" />
    <glyph glyph-name="G" unicode="G" horiz-adv-x="851" 
d="M437 745h321v-745h-194l-6 82q-69 -96 -193 -96q-147 0 -215 108q-45 71 -57 178q-7 55 -7 190v451q0 219 27 294q64 178 317 178q190 0 266 -95q62 -78 62 -264v-73h-216v83q0 147 -107 147q-89 0 -109 -115q-4 -25 -4 -183v-386q0 -156 5 -188q21 -123 107 -123
q65 0 90 55q18 40 18 154v143h-105v205z" />
    <glyph glyph-name="H" unicode="H" horiz-adv-x="879" 
d="M540 613h-202v-613h-236v1365h236v-554h202v554h236v-1365h-236v613z" />
    <glyph glyph-name="I" unicode="I" horiz-adv-x="441" 
d="M338 1365v-1365h-236v1365h236z" />
    <glyph glyph-name="J" unicode="J" horiz-adv-x="727" 
d="M25 505h225v-208q0 -56 10 -80q15 -35 57 -35q71 0 71 115v1068h236v-1038q0 -134 -12 -177q-48 -170 -291 -170q-160 0 -236 79q-60 62 -60 220v226z" />
    <glyph glyph-name="K" unicode="K" horiz-adv-x="899" 
d="M566 779l328 -779h-260l-223 566l-73 -151v-415h-236v1365h236v-571l267 571h253z" />
    <glyph glyph-name="L" unicode="L" horiz-adv-x="751" 
d="M338 1365v-1153h388v-212h-624v1365h236z" />
    <glyph glyph-name="M" unicode="M" horiz-adv-x="1174" 
d="M653 0h-136l-202 1122l8 -156q4 -83 4 -222v-744h-225v1365h363l75 -454q22 -135 44 -337l6 52q22 191 38 285l77 454h366v-1365h-225v711q0 97 5 246q4 109 7 165l-71 -397z" />
    <glyph glyph-name="N" unicode="N" horiz-adv-x="922" 
d="M819 0h-255l-161 551q-45 154 -110 447q3 -44 12 -172q7 -107 9 -294l7 -532h-219v1365h255l163 -558q47 -161 96 -407l-2 62q-4 136 -7 345l-7 558h219v-1365z" />
    <glyph glyph-name="O" unicode="O" horiz-adv-x="856" 
d="M770 941v-517q0 -194 -26 -261q-71 -183 -316 -183q-175 0 -264 99q-55 62 -71 163q-7 50 -7 182v517q0 195 26 262q71 182 316 182q175 0 264 -99q55 -62 71 -163q7 -50 7 -182zM322 938v-511q0 -126 7 -159q20 -97 99 -97t99 97q7 33 7 159v511q0 126 -7 159
q-20 97 -99 97t-99 -97q-7 -33 -7 -159z" />
    <glyph glyph-name="P" unicode="P" horiz-adv-x="819" 
d="M338 601v-601h-236v1365h334q139 0 194 -20q93 -33 126 -142q24 -78 24 -222q0 -196 -54 -278q-67 -102 -250 -102h-138zM338 799h80q79 0 106 54q17 36 17 127q0 129 -39 167q-21 20 -92 20h-72v-368z" />
    <glyph glyph-name="Q" unicode="Q" horiz-adv-x="856" 
d="M326 -9q-78 20 -120 49q-77 53 -104 154q-16 60 -16 230v518q0 194 26 261q71 182 316 182q176 0 265 -99q55 -61 70 -163q7 -49 7 -181v-518q0 -216 -39 -291q-58 -112 -200 -142q1 -21 6 -31q8 -17 54 -17h68v-191h-143q-114 0 -155 37q-35 32 -35 132v70zM322 938
v-511q0 -137 15 -191q18 -65 90 -65q79 0 100 97q7 34 7 159v511q0 126 -7 160q-20 96 -100 96q-72 0 -90 -64q-15 -54 -15 -192z" />
    <glyph glyph-name="R" unicode="R" horiz-adv-x="851" 
d="M338 620v-620h-236v1365h323q151 0 212 -27q89 -39 115 -163q15 -70 15 -181q0 -131 -21 -179q-32 -74 -139 -98q96 -15 128 -80q24 -47 24 -156v-197q0 -212 23 -284h-248q-11 55 -11 172v249q0 97 -20 141q-27 58 -113 58h-52zM338 811h67q86 0 115 49q22 36 22 132
q0 119 -36 157q-24 25 -97 25h-71v-363z" />
    <glyph glyph-name="S" unicode="S" horiz-adv-x="807" 
d="M714 913h-225v80q0 190 -106 190q-98 0 -98 -121q0 -99 128 -210l135 -117q125 -108 162 -170q53 -88 53 -233q0 -352 -359 -352q-186 0 -270 97q-77 90 -77 277v148h225v-110q0 -210 128 -210q114 0 114 147q0 71 -27 116q-20 34 -83 89l-128 112q-104 91 -127 117
q-62 70 -83 142q-16 54 -16 140q0 340 329 340q325 0 325 -357v-115z" />
    <glyph glyph-name="T" unicode="T" horiz-adv-x="732" 
d="M485 1153v-1153h-236v1153h-238v212h710v-212h-236z" />
    <glyph glyph-name="U" unicode="U" horiz-adv-x="891" 
d="M551 1365h236v-962q0 -163 -19 -224q-62 -199 -323 -199q-200 0 -286 121q-57 81 -57 302v962h236v-989q0 -93 12 -132q23 -73 95 -73q71 0 94 73q12 40 12 132v989z" />
    <glyph glyph-name="V" unicode="V" horiz-adv-x="762" 
d="M543 0h-298l-227 1365h238l80 -565q32 -223 55 -533q18 282 49 533l69 565h235z" />
    <glyph glyph-name="W" unicode="W" horiz-adv-x="1218" 
d="M509 0h-269l-215 1365h236l78 -635q8 -62 35 -405q19 257 36 405l71 635h247l86 -635q23 -169 39 -405q4 44 14 164l20 241l68 635h239l-208 -1365h-258l-90 653q-18 127 -29 315l-6 -63q-7 -86 -23 -253z" />
    <glyph glyph-name="X" unicode="X" horiz-adv-x="803" 
d="M526 701l280 -701h-246l-75 208q-64 179 -84 258q-26 -91 -83 -248l-79 -218h-242l279 720l-258 645h248l63 -169q25 -68 62 -189l10 -33q34 118 73 221l64 170h240z" />
    <glyph glyph-name="Y" unicode="Y" horiz-adv-x="819" 
d="M522 536v-536h-236v536l-282 829h242l83 -249q38 -114 68 -234l11 -44q45 174 81 278l85 249h241z" />
    <glyph glyph-name="Z" unicode="Z" horiz-adv-x="810" 
d="M759 1365v-165l-434 -988h440v-212h-720v161l435 992h-387v212h666z" />
    <glyph glyph-name="bracketleft" unicode="[" horiz-adv-x="478" 
d="M399 1365v-184h-81v-1332h81v-184h-299v1700h299z" />
    <glyph glyph-name="backslash" unicode="\" horiz-adv-x="556" 
d="M38 1365h131l435 -1700h-131z" />
    <glyph glyph-name="bracketright" unicode="]" horiz-adv-x="478" 
d="M79 -335v184h81v1332h-81v184h299v-1700h-299z" />
    <glyph glyph-name="asciicircum" unicode="^" 
d="M252 714h-223l344 658h278l344 -658h-224l-260 489z" />
    <glyph glyph-name="underscore" unicode="_" 
d="M0 -112h1024v-192h-1024v192z" />
    <glyph glyph-name="grave" unicode="`" 
d="M508 1365l83 -239h-163l-187 239h267z" />
    <glyph glyph-name="a" unicode="a" horiz-adv-x="709" 
d="M288 706h-198v76q0 140 67 202q64 61 205 61q225 0 251 -155q9 -55 9 -134v-756h-204v70q-58 -81 -153 -81q-151 0 -180 144q-10 49 -10 135q0 141 20 197q30 82 132 138l103 57q80 44 80 112q0 89 -61 89t-61 -86v-69zM410 514l-57 -40q-50 -35 -59 -80q-7 -36 -7 -107
q0 -127 59 -127q64 0 64 119v235z" />
    <glyph glyph-name="b" unicode="b" horiz-adv-x="725" 
d="M86 1365h212v-390q79 70 153 70q96 0 147 -65q39 -50 49 -146q3 -35 3 -158v-312q0 -163 -15 -223q-38 -152 -182 -152q-87 0 -162 81v-70h-205v1365zM438 359v303v116q-9 83 -57 83q-83 0 -83 -228v-246q0 -227 83 -227q48 0 57 83v116z" />
    <glyph glyph-name="c" unicode="c" horiz-adv-x="706" 
d="M654 670h-212v85q0 126 -75 126q-58 0 -74 -66q-6 -26 -6 -112v-341q0 -126 14 -162q15 -40 70 -40q51 0 68 40q10 24 10 85v136h212v-142q0 -127 -45 -191q-69 -99 -247 -99q-151 0 -225 80q-69 75 -69 281v359q0 167 65 247q72 89 234 89q280 0 280 -276v-99z" />
    <glyph glyph-name="d" unicode="d" horiz-adv-x="725" 
d="M427 1365h212v-1365h-205v70q-74 -81 -162 -81q-109 0 -156 85q-41 74 -41 290v312q0 185 19 243q41 126 180 126q74 0 153 -70v390zM287 662v-303q0 -127 9 -161q10 -38 48 -38q83 0 83 227v246q0 228 -83 228q-38 0 -48 -38q-9 -34 -9 -161z" />
    <glyph glyph-name="e" unicode="e" horiz-adv-x="724" 
d="M648 478h-361v-164q0 -89 15 -119q18 -36 63 -36q71 0 71 90v126h212v-119q0 -144 -70 -208q-67 -59 -212 -59q-167 0 -234 87q-57 74 -57 281v266q0 183 14 238q47 184 279 184q228 0 268 -176q12 -56 12 -150v-241zM436 635v129q0 117 -75 117q-74 0 -74 -117v-129h149
z" />
    <glyph glyph-name="f" unicode="f" horiz-adv-x="421" 
d="M408 1035v-182h-88v-853h-212v853h-85v182h85v150q0 72 10 99q30 81 153 81h137v-180h-29q-59 0 -59 -70v-80h88z" />
    <glyph glyph-name="g" unicode="g" horiz-adv-x="722" 
d="M431 1035h205v-979q0 -175 -21 -239q-50 -152 -255 -152q-181 0 -241 105q-28 49 -28 151h211l1 -16q3 -53 13 -65q16 -20 46 -20q62 0 62 112v130q-67 -73 -151 -73q-113 0 -159 83q-39 71 -39 260v399q0 226 110 289q45 26 98 26q54 0 95 -30q23 -17 53 -53v72z
M287 710v-385q0 -152 54 -152q83 0 83 238v213q0 238 -83 238q-54 0 -54 -152z" />
    <glyph glyph-name="h" unicode="h" horiz-adv-x="750" 
d="M86 1365h212v-407q94 87 187 87q94 0 140 -61q39 -51 39 -177v-807h-212v746q0 114 -69 114q-85 0 -85 -157v-703h-212v1365z" />
    <glyph glyph-name="i" unicode="i" horiz-adv-x="384" 
d="M298 1035v-1035h-212v1035h212zM298 1365v-198h-212v198h212z" />
    <glyph glyph-name="j" unicode="j" horiz-adv-x="393" 
d="M95 1035h212v-1070q0 -153 -9 -191q-19 -79 -86 -99q-34 -10 -117 -10h-68v199h22q32 0 40 26q6 19 6 75v1070zM307 1365v-198h-212v198h212z" />
    <glyph glyph-name="k" unicode="k" horiz-adv-x="747" 
d="M511 615l222 -615h-241l-194 572v-572h-212v1365h212v-725l194 395h236z" />
    <glyph glyph-name="l" unicode="l" horiz-adv-x="384" 
d="M298 1365v-1365h-212v1365h212z" />
    <glyph glyph-name="m" unicode="m" horiz-adv-x="1083" 
d="M86 1035h205v-82q38 41 62 57q54 36 126 36q112 0 162 -97q35 39 62 59q51 38 119 38q88 0 133 -59q42 -56 42 -201v-786h-212v705q0 143 -57 143q-79 0 -79 -164v-684h-212v674q0 86 -4 116q-8 58 -55 58q-80 0 -80 -173v-675h-212v1035z" />
    <glyph glyph-name="n" unicode="n" horiz-adv-x="750" 
d="M86 1035h205v-95q43 49 73 69q56 37 124 37q176 0 176 -244v-802h-212v690q0 78 -4 98q-12 60 -61 60q-89 0 -89 -180v-668h-212v1035z" />
    <glyph glyph-name="o" unicode="o" horiz-adv-x="713" 
d="M638 684v-334q0 -150 -23 -211q-56 -150 -258 -150q-163 0 -234 102q-48 69 -48 259v334q0 150 23 211q56 150 259 150q153 0 224 -90q57 -72 57 -271zM287 710v-385q0 -89 9 -118q15 -47 61 -47q45 0 60 47q9 29 9 118v385q0 88 -9 117q-15 47 -60 47q-46 0 -61 -47
q-9 -29 -9 -117z" />
    <glyph glyph-name="p" unicode="p" horiz-adv-x="721" 
d="M86 1035h205v-71q81 82 165 82q114 0 156 -93q34 -75 34 -254v-364q0 -154 -11 -201q-34 -145 -175 -145q-89 0 -162 78v-402h-212v1370zM298 612v-203q0 -108 5 -144q15 -105 71 -105q45 0 57 72q3 22 3 105v348q0 83 -3 105q-12 72 -57 72q-56 0 -71 -106
q-5 -35 -5 -144z" />
    <glyph glyph-name="q" unicode="q" horiz-adv-x="728" 
d="M437 1035h205v-1370h-212v390q-74 -66 -154 -66q-99 0 -148 74q-53 80 -53 282v341q0 130 10 184q21 111 91 151q44 25 99 25q91 0 162 -86v75zM287 679v-337q0 -90 3 -108q11 -74 58 -74q88 0 88 229v243q0 230 -88 230q-39 0 -51 -41q-10 -35 -10 -142z" />
    <glyph glyph-name="r" unicode="r" horiz-adv-x="560" 
d="M86 1035h205v-161q36 77 64 110q56 64 180 61v-248q-40 3 -66 3q-145 0 -163 -133q-8 -58 -8 -132v-535h-212v1035z" />
    <glyph glyph-name="s" unicode="s" horiz-adv-x="649" 
d="M596 707h-191v63q0 118 -81 118q-74 0 -74 -79q0 -48 58 -102l196 -184q56 -52 80 -99q29 -56 29 -165q0 -136 -50 -192q-70 -78 -231 -78q-288 0 -288 287v121h198v-109q0 -142 87 -142q86 0 86 116q0 37 -10 58q-15 32 -48 63l-203 193q-102 97 -102 226q0 243 275 243
q269 0 269 -250v-88z" />
    <glyph glyph-name="t" unicode="t" horiz-adv-x="444" 
d="M409 1035v-182h-88v-587q0 -51 5 -65q10 -30 50 -30h33v-171h-137q-146 0 -159 107q-4 34 -4 115v631h-82v182h82v270h212v-270h88z" />
    <glyph glyph-name="u" unicode="u" horiz-adv-x="754" 
d="M668 1035v-1035h-205v86q-37 -37 -65 -56q-60 -41 -131 -41q-99 0 -142 71q-39 64 -39 268v707h212v-696q0 -92 11 -120q12 -32 51 -32q67 0 87 87q9 38 9 139v622h212z" />
    <glyph glyph-name="v" unicode="v" horiz-adv-x="647" 
d="M478 0h-288l-167 1035h209l83 -651q6 -59 16 -149q1 16 12 145q1 16 23 227l44 428h213z" />
    <glyph glyph-name="w" unicode="w" horiz-adv-x="981" 
d="M410 0h-210l-177 1035h211l83 -715q11 133 39 398l41 317h184l45 -292q46 -297 59 -423q16 195 37 423l27 292h209l-150 -1035h-211l-54 315q-19 113 -40 295l-6 53q-5 -40 -15 -138q-8 -75 -28 -216z" />
    <glyph glyph-name="x" unicode="x" horiz-adv-x="684" 
d="M442 534l248 -534h-225l-55 137q-46 115 -74 205l-9 -27l-34 -102l-26 -76l-48 -137h-224l234 545l-221 490h221l49 -119q37 -91 58 -163q6 20 24 72l16 44l16 48l44 118h229z" />
    <glyph glyph-name="y" unicode="y" horiz-adv-x="653" 
d="M412 1035h218l-175 -1096q-25 -156 -64 -212q-43 -62 -154 -62h-143v191h55q67 0 67 47q0 13 -10 71l-183 1061h221l48 -405q25 -214 43 -451q19 282 36 451z" />
    <glyph glyph-name="z" unicode="z" horiz-adv-x="631" 
d="M591 1035v-182l-323 -655h331v-198h-568v182l322 655h-293v198h531z" />
    <glyph glyph-name="braceleft" unicode="{" horiz-adv-x="705" 
d="M310 514q55 -34 77 -66q44 -64 44 -185v-251q0 -83 12 -106q22 -43 81 -53q68 -4 63 -4h39v-184h-68q-94 0 -148 10q-197 36 -197 286v290q0 151 -113 172v184q55 12 84 50t29 121v300q0 175 100 240q72 47 246 47h67v-184h-40q-84 0 -118 -27q-37 -29 -37 -133v-258
q0 -119 -38 -176q-25 -37 -83 -73z" />
    <glyph glyph-name="bar" unicode="|" 
d="M406 1365h212v-1706h-212v1706z" />
    <glyph glyph-name="braceright" unicode="}" horiz-adv-x="705" 
d="M394 516q-55 34 -77 66q-44 64 -44 185v251q0 83 -12 106q-22 43 -81 53q-51 3 -62 4h-39v184h67q94 0 148 -10q197 -36 197 -286v-290q0 -91 30 -125q34 -38 84 -47v-184q-56 -11 -85 -49.5t-29 -121.5v-300q0 -175 -100 -240q-73 -47 -245 -47h-67v184h39
q85 0 120 27.5t35 132.5v258q0 119 38 176q24 37 83 73z" />
    <glyph glyph-name="asciitilde" unicode="~" horiz-adv-x="1365" 
d="M306 1168l-119 78q50 105 74 140q86 122 222 122q73 0 221 -61q101 -42 126 -48q31 -8 61 -8q66 0 109 44q25 26 55 77l123 -72q-68 -139 -133 -190q-81 -63 -179 -63q-63 0 -294 93q-59 24 -106 24q-64 0 -108 -53q-21 -25 -52 -83z" />
    <glyph glyph-name="nonbreakingspace" unicode="&#xa0;" horiz-adv-x="382" 
 />
    <glyph glyph-name="exclamdown" unicode="&#xa1;" horiz-adv-x="438" 
d="M144 689h149l32 -185v-836h-212v836zM113 782v253h212v-253h-212z" />
    <glyph glyph-name="cent" unicode="&#xa2;" horiz-adv-x="833" 
d="M462 171v-198h-106v200q-170 24 -212 162q-20 66 -20 195v359q0 154 47 223q61 89 185 107v160h106v-157q174 -17 220 -136q21 -54 21 -137v-98h-212v84q0 125 -76 125q-58 0 -73 -65q-6 -25 -6 -111v-341q0 -128 13 -163q15 -40 70 -40q52 0 69 40q10 24 10 85v136h212
v-142q0 -100 -25 -155q-53 -116 -223 -133z" />
    <glyph glyph-name="sterling" unicode="&#xa3;" horiz-adv-x="833" 
d="M561 774v-109h-125q21 -56 27 -76q20 -67 20 -133q0 -78 -34 -138q-23 -41 -77 -91q23 1 31 1q38 0 103 -30q15 -7 31 -7q40 0 75 92l164 -88q-78 -213 -214 -213q-42 0 -118 38t-116 38q-51 0 -131 -40l-92 177q153 68 153 215q0 82 -35 170l-34 85h-121v109h78l-17 44
q-50 129 -50 222q0 153 89 244.5t242 91.5q327 0 327 -369v-85h-212v82q0 188 -114 188q-107 0 -107 -129q0 -76 45 -178l49 -111h163z" />
    <glyph glyph-name="currency" unicode="&#xa4;" horiz-adv-x="833" 
d="M34 391l122 123q-24 42 -37 75q-16 41 -16 93q0 91 54 170l-125 124l89 89l124 -124q82 54 172 54t170 -53l123 122l88 -89l-122 -122q55 -85 55 -170q0 -88 -53 -169l123 -123l-88 -89l-123 123q-91 -54 -171 -54q-89 0 -174 54l-123 -122zM415 854q-70 0 -119.5 -50
t-49.5 -121t50 -121t121 -50t121 49.5t50 120.5q0 73 -50 122.5t-123 49.5z" />
    <glyph glyph-name="yen" unicode="&#xa5;" horiz-adv-x="833" 
d="M522 492v-492h-212v492h-269v109h246l-59 164h-201v109h161l-177 491h230l87 -249q46 -133 76 -233l13 -44q41 146 88 277l89 249h228l-178 -491h162v-109h-201l-60 -164h247v-109h-270z" />
    <glyph glyph-name="brokenbar" unicode="&#xa6;" 
d="M406 1365h212v-696h-212v696zM406 314h212v-655h-212v655z" />
    <glyph glyph-name="section" unicode="&#xa7;" horiz-adv-x="1016" 
d="M863 946l-211 7l3 96q5 146 -122 146q-108 0 -108 -100q0 -87 100 -155l178 -121q106 -72 154 -128q70 -83 70 -181q0 -96 -59 -185q-34 -51 -98 -120q44 -52 61 -90q27 -59 27 -137q0 -156 -94.5 -241.5t-252.5 -85.5q-181 0 -274 95q-71 72 -71 223v12l4 121l213 -8
l-3 -77q-7 -168 121 -168q118 0 118 121q0 88 -131 177l-164 112q-118 80 -168 141q-67 81 -67 182q0 102 65 190q33 45 106 116q-75 89 -75 198q0 293 345 293q337 0 337 -306q0 -6 -1 -36zM382 764q-80 -79 -80 -139q0 -73 109 -147l229 -156q74 77 74 140q0 70 -120 154z
" />
    <glyph glyph-name="dieresis" unicode="&#xa8;" 
d="M479 1365v-239h-198v239h198zM742 1365v-239h-198v239h198z" />
    <glyph glyph-name="copyright" unicode="&#xa9;" horiz-adv-x="1436" 
d="M726 1385q177 0 332 -111q146 -105 223 -272q69 -150 69 -319q0 -293 -187 -498t-445 -205q-259 0 -444 204q-188 207 -188 497q0 296 187 500t453 204zM712 1276q-204 0 -356.5 -172.5t-152.5 -420.5q0 -246 152 -420t363 -174t363 174t152 419q0 236 -140 409
q-151 185 -381 185zM936 814h-153v51q0 55 -4 69q-9 36 -48 36q-42 0 -53 -41q-5 -17 -5 -77v-322q0 -58 5 -76q11 -42 53 -42q39 0 48 36q4 14 4 69v79h153v-30q0 -113 -12 -156q-34 -121 -198 -121q-186 0 -201 159q-5 52 -5 118v250q0 113 12 156q34 121 198 121
q184 0 201 -146q5 -43 5 -108v-25z" />
    <glyph glyph-name="ordfeminine" unicode="&#xaa;" horiz-adv-x="463" 
d="M201 1227h-129v18q0 140 162 140q86 0 120 -33.5t34 -119.5v-382h-133v16q-29 -21 -73 -21q-118 0 -118 150q0 76 19 111q17 32 79 62l55 27q35 17 35 44q0 31 -25 31q-26 0 -26 -29v-14zM252 1091l-11 -6l-16 -8q-34 -17 -34 -74q0 -50 27 -50q34 0 34 46v92z" />
    <glyph glyph-name="guillemotleft" unicode="&#xab;" horiz-adv-x="799" 
d="M724 306h-199l-157 195l157 195h199l-161 -195zM408 306h-199l-157 195l157 195h199l-160 -195z" />
    <glyph glyph-name="logicalnot" unicode="&#xac;" 
d="M743 0v349h-675v197h887v-546h-212z" />
    <glyph glyph-name="sfthyphen" unicode="&#xad;" horiz-adv-x="344" 
d="M344 632v-191h-344v191h344z" />
    <glyph glyph-name="registered" unicode="&#xae;" horiz-adv-x="1436" 
d="M726 1385q177 0 332 -111q146 -105 223 -272q69 -150 69 -319q0 -293 -187 -498t-445 -205q-259 0 -444 204q-188 207 -188 497q0 296 187 500t453 204zM712 1276q-204 0 -356.5 -172.5t-152.5 -420.5q0 -246 152 -420t363 -174t363 174t152 419q0 236 -140 409
q-151 185 -381 185zM675 647v-347h-153v781h196q89 0 127 -16q55 -23 71 -96q9 -40 9 -102q0 -67 -8 -91q-13 -42 -60 -65q63 -32 63 -133v-111q0 -123 17 -167h-162q-8 38 -8 105v139q0 53 -11 75q-14 28 -58 28h-23zM675 771h31q46 0 61 24q11 18 11 69q0 65 -19 83
q-11 11 -50 11h-34v-187z" />
    <glyph glyph-name="macron" unicode="&#xaf;" 
d="M785 1335v-177h-546v177h546z" />
    <glyph glyph-name="macron" unicode="&#x2c9;" 
d="M785 1335v-177h-546v177h546z" />
    <glyph glyph-name="degree" unicode="&#xb0;" horiz-adv-x="758" 
d="M383 1385q123 0 211.5 -88t88.5 -211q0 -126 -89 -213.5t-215 -87.5t-215 87t-89 213q0 128 89.5 214t218.5 86zM377 1257q-70 0 -121 -50.5t-51 -120.5q0 -73 50.5 -123t123.5 -50t123.5 50t50.5 122q0 73 -51 122.5t-125 49.5z" />
    <glyph glyph-name="plusminus" unicode="&#xb1;" horiz-adv-x="833" 
d="M758 815v-153h-263v-236h-157v236h-264v153h264v236h157v-236h263zM758 339v-153h-684v153h684z" />
    <glyph glyph-name="twosuperior" unicode="&#xb2;" horiz-adv-x="573" 
d="M510 685v-139h-447q-2 189 82 324q24 38 122 149q80 90 80 151q0 80 -59 80q-60 0 -60 -92v-83h-162v63q0 111 40 163q59 76 186 76q101 0 162 -53t61 -153q0 -64 -28 -116q-23 -42 -84 -111q-79 -89 -100 -119q-53 -74 -65 -140h272z" />
    <glyph glyph-name="threesuperior" unicode="&#xb3;" horiz-adv-x="573" 
d="M201 921v123h39q58 0 76.5 20t18.5 79q0 111 -57 111q-56 0 -56 -84v-56h-154v50q0 108 42 154q53 59 170 59q113 0 168 -58q47 -50 47 -164q0 -83 -19 -121q-14 -27 -47 -48q39 -16 58 -44q30 -45 30 -160q0 -96 -18 -139q-46 -109 -207 -109q-120 0 -181 57
q-47 44 -47 154v96h158v-83q0 -101 67 -101q43 0 57 29q10 20 10 83q0 76 -7 100q-11 37 -45 47q-18 5 -59 5h-44z" />
    <glyph glyph-name="acute" unicode="&#xb4;" 
d="M502 1365h267l-187 -239h-163z" />
    <glyph glyph-name="mu" unicode="&#xb5;" 
d="M72 -350v1333h212v-537q0 -117 20 -169q30 -79 104 -116q50 -25 104 -25q103 0 167 82q36 46 50 104q11 46 11 136v525h212v-983h-212v143q-35 -73 -72 -106q-67 -60 -162 -60q-91 0 -156 54q-31 26 -66 83v-464h-212z" />
    <glyph glyph-name="mu" unicode="&#x3bc;" 
d="M72 -350v1333h212v-537q0 -117 20 -169q30 -79 104 -116q50 -25 104 -25q103 0 167 82q36 46 50 104q11 46 11 136v525h212v-983h-212v143q-35 -73 -72 -106q-67 -60 -162 -60q-91 0 -156 54q-31 26 -66 83v-464h-212z" />
    <glyph glyph-name="paragraph" unicode="&#xb6;" horiz-adv-x="833" 
d="M730 1365v-1700h-138v1577h-97v-1577h-138v936h-15q-183 0 -250 102q-54 82 -54 278q0 172 34 251q42 97 140 121q50 12 170 12h348z" />
    <glyph glyph-name="periodcentered" unicode="&#xb7;" horiz-adv-x="390" 
d="M304 674v-253h-218v253h218z" />
    <glyph glyph-name="periodcentered" unicode="&#x2219;" horiz-adv-x="390" 
d="M304 674v-253h-218v253h218z" />
    <glyph glyph-name="cedilla" unicode="&#xb8;" 
d="M582 0l-47 -95q17 6 31 6q55 0 90 -38t35 -94q0 -71 -48.5 -117t-120.5 -46q-71 0 -145 40l20 86q59 -36 109 -36q57 0 57 63q0 58 -53 58q-24 0 -53 -13l-38 41l67 145h96z" />
    <glyph glyph-name="onesuperior" unicode="&#xb9;" horiz-adv-x="573" 
d="M396 1365v-819h-161v660h-100v103q89 4 114 56h147z" />
    <glyph glyph-name="ordmasculine" unicode="&#xba;" horiz-adv-x="470" 
d="M394 1197v-164q0 -103 -33 -141q-41 -48 -126 -48q-86 0 -127 48q-33 38 -33 141v164q0 102 33 140q42 48 127 48t126 -48q33 -38 33 -140zM211 1209v-188q0 -69 24 -69t24 69v188q0 68 -24 68t-24 -68z" />
    <glyph glyph-name="guillemotright" unicode="&#xbb;" horiz-adv-x="799" 
d="M75 696h199l157 -195l-157 -195h-199l161 195zM391 696h199l157 -195l-157 -195h-199l160 195z" />
    <glyph glyph-name="onequarter" unicode="&#xbc;" horiz-adv-x="1405" 
d="M396 1365v-819h-161v660h-100v103q89 4 114 56h147zM1105 1365l-681 -1365h-123l681 1365h123zM1141 175h-252v117l254 527h150v-522h66v-122h-66v-175h-152v175zM1141 297v138q0 72 3 113q-1 -3 -49 -109l-64 -142h110z" />
    <glyph glyph-name="onehalf" unicode="&#xbd;" horiz-adv-x="1405" 
d="M396 1365v-819h-161v660h-100v103q89 4 114 56h147zM1105 1365l-681 -1365h-123l681 1365h123zM1341 139v-139h-447q-2 189 82 324q24 38 122 149q80 90 80 152q0 80 -59 80q-60 0 -60 -93v-84h-162v63q0 112 40 164q59 76 186 76q100 0 160 -52q63 -55 63 -154
q0 -65 -28 -117q-22 -41 -84 -111q-103 -117 -128 -160q-29 -50 -37 -98h272z" />
    <glyph glyph-name="threequarters" unicode="&#xbe;" horiz-adv-x="1405" 
d="M201 921v123h39q58 0 76.5 20t18.5 79q0 111 -57 111q-56 0 -56 -84v-56h-154v50q0 108 42 154q53 59 170 59q113 0 168 -58q47 -50 47 -164q0 -83 -19 -121q-14 -27 -47 -48q39 -16 58 -44q30 -45 30 -160q0 -96 -18 -139q-46 -109 -207 -109q-120 0 -181 57
q-47 44 -47 154v96h158v-83q0 -101 67 -101q43 0 57 29q10 20 10 83q0 76 -7 100q-11 37 -45 47q-18 5 -59 5h-44zM1104 1365l-681 -1365h-123l681 1365h123zM1141 175h-252v117l254 527h150v-522h65v-122h-65v-175h-152v175zM1141 297v138q0 72 3 113q-1 -3 -49 -109
l-64 -142h110z" />
    <glyph glyph-name="questiondown" unicode="&#xbf;" horiz-adv-x="777" 
d="M391 680h200q-1 -80 -24 -145q-36 -101 -117 -211l-90 -122q-53 -71 -63 -95q-21 -48 -21 -102q0 -146 115 -146t115 140v82h205v-120q0 -307 -309 -307q-164 0 -256 87q-95 90 -95 253q0 172 178 394l98 122q38 47 50 96q6 23 14 74zM389 782v253h212v-253h-212z" />
    <glyph glyph-name="Agrave" unicode="&#xc0;" horiz-adv-x="802" 
d="M495 365h-198l-49 -365h-230l217 1365h306l244 -1365h-231zM467 563l-37 231q-20 124 -42 359q-17 -223 -35 -359l-31 -231h145zM395 1673l92 -239h-169l-193 239h270z" />
    <glyph glyph-name="Aacute" unicode="&#xc1;" horiz-adv-x="802" 
d="M495 365h-198l-49 -365h-230l217 1365h306l244 -1365h-231zM467 563l-37 231q-20 124 -42 359q-17 -223 -35 -359l-31 -231h145zM408 1673h270l-194 -239h-168z" />
    <glyph glyph-name="Acircumflex" unicode="&#xc2;" horiz-adv-x="802" 
d="M495 365h-198l-49 -365h-230l217 1365h306l244 -1365h-231zM467 563l-37 231q-20 124 -42 359q-17 -223 -35 -359l-31 -231h145zM649 1434h-187l-63 122l-76 -122h-169l158 239h186z" />
    <glyph glyph-name="Atilde" unicode="&#xc3;" horiz-adv-x="802" 
d="M495 365h-198l-49 -365h-230l217 1365h306l244 -1365h-231zM467 563l-37 231q-20 124 -42 359q-17 -223 -35 -359l-31 -231h145zM542 1666h134q-4 -86 -23 -128q-41 -91 -142 -91q-34 0 -101 23.5t-89 23.5q-38 0 -50 -54h-144q10 225 164 225q53 0 144 -34
q40 -15 58 -15q43 0 49 50z" />
    <glyph glyph-name="Adieresis" unicode="&#xc4;" horiz-adv-x="802" 
d="M495 365h-198l-49 -365h-230l217 1365h306l244 -1365h-231zM467 563l-37 231q-20 124 -42 359q-17 -223 -35 -359l-31 -231h145zM368 1673v-239h-199v239h199zM633 1673v-239h-199v239h199z" />
    <glyph glyph-name="Aring" unicode="&#xc5;" horiz-adv-x="802" 
d="M495 365h-198l-49 -365h-230l217 1365h306l244 -1365h-231zM467 563l-37 231q-20 124 -42 359q-17 -223 -35 -359l-31 -231h145zM404 1768q68 0 116.5 -49t48.5 -118t-49 -118t-118 -49q-70 0 -119 48.5t-49 118.5q0 71 49.5 119t120.5 48zM401 1657q-55 0 -55 -55
q0 -56 56 -56t56 55q0 56 -57 56z" />
    <glyph glyph-name="AE" unicode="&#xc6;" horiz-adv-x="1282" 
d="M574 365h-242l-88 -365h-239l353 1365h847v-218h-395v-347h374v-198h-374v-384h418v-218h-654v365zM574 563v604h-43l-151 -604h194z" />
    <glyph glyph-name="Ccedilla" unicode="&#xc7;" horiz-adv-x="826" 
d="M473 -19l-37 -77q17 6 31 6q55 0 90 -38t35 -94q0 -71 -49 -116.5t-120 -45.5q-72 0 -145 40l19 85q59 -36 110 -36q57 0 57 63q0 58 -53 58q-23 0 -53 -13l-38 41l59 128q-120 13 -187 65q-72 55 -93 170q-13 70 -13 243v446q0 200 20 274q56 205 328 205
q306 0 332 -247q8 -77 8 -191v-29h-235v77q0 116 -17 154q-20 45 -87 45q-80 0 -103 -77q-10 -35 -10 -145v-578q0 -111 10 -146q22 -78 103 -78q66 0 87 46q17 37 17 155v127h235v-38q0 -228 -30 -307q-59 -156 -271 -172z" />
    <glyph glyph-name="Egrave" unicode="&#xc8;" horiz-adv-x="812" 
d="M734 1365v-218h-396v-347h374v-198h-374v-384h419v-218h-655v1365h632zM427 1673l92 -239h-169l-193 239h270z" />
    <glyph glyph-name="Eacute" unicode="&#xc9;" horiz-adv-x="812" 
d="M734 1365v-218h-396v-347h374v-198h-374v-384h419v-218h-655v1365h632zM412 1673h270l-194 -239h-168z" />
    <glyph glyph-name="Ecircumflex" unicode="&#xca;" horiz-adv-x="812" 
d="M734 1365v-218h-396v-347h374v-198h-374v-384h419v-218h-655v1365h632zM654 1434h-187l-63 122l-76 -122h-169l158 239h186z" />
    <glyph glyph-name="Edieresis" unicode="&#xcb;" horiz-adv-x="812" 
d="M734 1365v-218h-396v-347h374v-198h-374v-384h419v-218h-655v1365h632zM373 1673v-239h-199v239h199zM638 1673v-239h-199v239h199z" />
    <glyph glyph-name="Igrave" unicode="&#xcc;" horiz-adv-x="441" 
d="M338 1365v-1365h-236v1365h236zM214 1673l92 -239h-169l-193 239h270z" />
    <glyph glyph-name="Iacute" unicode="&#xcd;" horiz-adv-x="441" 
d="M338 1365v-1365h-236v1365h236zM227 1673h270l-194 -239h-168z" />
    <glyph glyph-name="Icircumflex" unicode="&#xce;" horiz-adv-x="441" 
d="M338 1365v-1365h-236v1365h236zM468 1434h-187l-63 122l-76 -122h-169l158 239h186z" />
    <glyph glyph-name="Idieresis" unicode="&#xcf;" horiz-adv-x="441" 
d="M339 1365v-1365h-236v1365h236zM188 1673v-239h-172v239h172zM426 1673v-239h-172v239h172z" />
    <glyph glyph-name="Eth" unicode="&#xd0;" horiz-adv-x="881" 
d="M103 602h-74v198h74v565h305q178 0 244 -28q103 -43 129 -176q14 -70 14 -270v-437q0 -222 -22 -290q-38 -116 -151 -147q-63 -17 -214 -17h-305v602zM338 602v-420h56q104 0 138 47q28 38 28 169v570q0 132 -28 170q-34 47 -138 47h-56v-385h107v-198h-107z" />
    <glyph glyph-name="Ntilde" unicode="&#xd1;" horiz-adv-x="922" 
d="M819 0h-255l-161 551q-45 154 -110 447q3 -44 12 -172q7 -107 9 -294l7 -532h-219v1365h255l163 -558q47 -161 96 -407l-2 62q-4 136 -7 345l-7 558h219v-1365zM601 1666h134q-4 -86 -23 -128q-41 -91 -142 -91q-34 0 -101 23.5t-89 23.5q-38 0 -50 -54h-144
q10 225 164 225q53 0 144 -34q40 -15 58 -15q43 0 49 50z" />
    <glyph glyph-name="Ograve" unicode="&#xd2;" horiz-adv-x="856" 
d="M770 941v-517q0 -194 -26 -261q-71 -183 -316 -183q-175 0 -264 99q-55 62 -71 163q-7 50 -7 182v517q0 195 26 262q71 182 316 182q175 0 264 -99q55 -62 71 -163q7 -50 7 -182zM322 938v-511q0 -126 7 -159q20 -97 99 -97t99 97q7 33 7 159v511q0 126 -7 159
q-20 97 -99 97t-99 -97q-7 -33 -7 -159zM422 1673l92 -239h-169l-193 239h270z" />
    <glyph glyph-name="Oacute" unicode="&#xd3;" horiz-adv-x="856" 
d="M770 941v-517q0 -194 -26 -261q-71 -183 -316 -183q-175 0 -264 99q-55 62 -71 163q-7 50 -7 182v517q0 195 26 262q71 182 316 182q175 0 264 -99q55 -62 71 -163q7 -50 7 -182zM322 938v-511q0 -126 7 -159q20 -97 99 -97t99 97q7 33 7 159v511q0 126 -7 159
q-20 97 -99 97t-99 -97q-7 -33 -7 -159zM435 1673h270l-194 -239h-168z" />
    <glyph glyph-name="Ocircumflex" unicode="&#xd4;" horiz-adv-x="856" 
d="M770 941v-517q0 -194 -26 -261q-71 -183 -316 -183q-175 0 -264 99q-55 62 -71 163q-7 50 -7 182v517q0 195 26 262q71 182 316 182q175 0 264 -99q55 -62 71 -163q7 -50 7 -182zM322 938v-511q0 -126 7 -159q20 -97 99 -97t99 97q7 33 7 159v511q0 126 -7 159
q-20 97 -99 97t-99 -97q-7 -33 -7 -159zM676 1434h-187l-63 122l-76 -122h-169l158 239h186z" />
    <glyph glyph-name="Otilde" unicode="&#xd5;" horiz-adv-x="856" 
d="M770 941v-517q0 -194 -26 -261q-71 -183 -316 -183q-175 0 -264 99q-55 62 -71 163q-7 50 -7 182v517q0 195 26 262q71 182 316 182q175 0 264 -99q55 -62 71 -163q7 -50 7 -182zM322 938v-511q0 -126 7 -159q20 -97 99 -97t99 97q7 33 7 159v511q0 126 -7 159
q-20 97 -99 97t-99 -97q-7 -33 -7 -159zM568 1666h134q-4 -86 -23 -128q-41 -91 -142 -91q-34 0 -101 23.5t-89 23.5q-38 0 -50 -54h-144q10 225 164 225q53 0 144 -34q40 -15 58 -15q43 0 49 50z" />
    <glyph glyph-name="Odieresis" unicode="&#xd6;" horiz-adv-x="856" 
d="M770 941v-517q0 -194 -26 -261q-71 -183 -316 -183q-175 0 -264 99q-55 62 -71 163q-7 50 -7 182v517q0 195 26 262q71 182 316 182q175 0 264 -99q55 -62 71 -163q7 -50 7 -182zM322 938v-511q0 -126 7 -159q20 -97 99 -97t99 97q7 33 7 159v511q0 126 -7 159
q-20 97 -99 97t-99 -97q-7 -33 -7 -159zM395 1673v-239h-199v239h199zM660 1673v-239h-199v239h199z" />
    <glyph glyph-name="multiply" unicode="&#xd7;" horiz-adv-x="833" 
d="M731 477l-109 -108l-206 205l-205 -205l-109 108l206 206l-206 206l109 108l205 -206l206 206l109 -108l-206 -206z" />
    <glyph glyph-name="Oslash" unicode="&#xd8;" horiz-adv-x="856" 
d="M712 1262q23 -32 39 -78q20 -56 20 -243v-517q0 -194 -26 -261q-71 -183 -315 -183q-175 0 -262 95l-59 -123l-87 38l88 182q-23 59 -23 252v517q0 195 26 262q71 182 314 182q125 0 215 -53l56 109l83 -41zM535 867l-212 -434v-27q0 -111 9 -148q21 -87 97 -87
q79 0 99 97q7 33 7 159v440zM323 641l207 425q-3 38 -11 64q-20 64 -92 64q-77 0 -97 -98q-7 -33 -7 -158v-297z" />
    <glyph glyph-name="Ugrave" unicode="&#xd9;" horiz-adv-x="891" 
d="M551 1365h236v-962q0 -163 -19 -224q-62 -199 -323 -199q-200 0 -286 121q-57 81 -57 302v962h236v-989q0 -93 12 -132q23 -73 95 -73q71 0 94 73q12 40 12 132v989zM438 1673l92 -239h-169l-193 239h270z" />
    <glyph glyph-name="Uacute" unicode="&#xda;" horiz-adv-x="891" 
d="M551 1365h236v-962q0 -163 -19 -224q-62 -199 -323 -199q-200 0 -286 121q-57 81 -57 302v962h236v-989q0 -93 12 -132q23 -73 95 -73q71 0 94 73q12 40 12 132v989zM452 1673h270l-194 -239h-168z" />
    <glyph glyph-name="Ucircumflex" unicode="&#xdb;" horiz-adv-x="891" 
d="M551 1365h236v-962q0 -163 -19 -224q-62 -199 -323 -199q-200 0 -286 121q-57 81 -57 302v962h236v-989q0 -93 12 -132q23 -73 95 -73q71 0 94 73q12 40 12 132v989zM693 1434h-187l-63 122l-76 -122h-169l158 239h186z" />
    <glyph glyph-name="Udieresis" unicode="&#xdc;" horiz-adv-x="891" 
d="M551 1365h236v-962q0 -163 -19 -224q-62 -199 -323 -199q-200 0 -286 121q-57 81 -57 302v962h236v-989q0 -93 12 -132q23 -73 95 -73q71 0 94 73q12 40 12 132v989zM412 1673v-239h-199v239h199zM677 1673v-239h-199v239h199z" />
    <glyph glyph-name="Yacute" unicode="&#xdd;" horiz-adv-x="819" 
d="M522 536v-536h-236v536l-282 829h242l83 -249q38 -114 68 -234l11 -44q45 174 81 278l85 249h241zM416 1673h270l-194 -239h-168z" />
    <glyph glyph-name="Thorn" unicode="&#xde;" horiz-adv-x="819" 
d="M338 341v-341h-236v1365h236v-259h98q139 0 194 -20q93 -33 126 -142q24 -78 24 -222q0 -197 -53 -278q-68 -103 -251 -103h-138zM338 539h80q80 0 106 54q17 36 17 128q0 128 -39 166q-21 21 -92 21h-72v-369z" />
    <glyph glyph-name="germandbls" unicode="&#xdf;" horiz-adv-x="744" 
d="M351 798v175q41 4 60 18q29 22 29 91q0 120 -72 120q-35 0 -51 -23q-19 -27 -19 -135v-1044h-212v1056q0 141 22 189q58 127 264 127q151 0 217 -71q63 -68 63 -220q0 -134 -68 -191q73 -55 83 -154q5 -49 5 -127v-277q0 -186 -30 -252q-37 -80 -171 -80h-120v177
q66 0 89 31q20 33 20 155v240q0 130 -36 166q-23 23 -73 29z" />
    <glyph glyph-name="agrave" unicode="&#xe0;" horiz-adv-x="709" 
d="M288 706h-198v76q0 140 67 202q64 61 205 61q225 0 251 -155q9 -55 9 -134v-756h-204v70q-58 -81 -153 -81q-151 0 -180 144q-10 49 -10 135q0 141 20 197q30 82 132 138l103 57q80 44 80 112q0 89 -61 89t-61 -86v-69zM410 514l-57 -40q-50 -35 -59 -80q-7 -36 -7 -107
q0 -127 59 -127q64 0 64 119v235zM351 1365l83 -239h-163l-187 239h267z" />
    <glyph glyph-name="aacute" unicode="&#xe1;" horiz-adv-x="709" 
d="M288 706h-198v76q0 140 67 202q64 61 205 61q225 0 251 -155q9 -55 9 -134v-756h-204v70q-58 -81 -153 -81q-151 0 -180 144q-10 49 -10 135q0 141 20 197q30 82 132 138l103 57q80 44 80 112q0 89 -61 89t-61 -86v-69zM410 514l-57 -40q-50 -35 -59 -80q-7 -36 -7 -107
q0 -127 59 -127q64 0 64 119v235zM344 1365h267l-187 -239h-163z" />
    <glyph glyph-name="acircumflex" unicode="&#xe2;" horiz-adv-x="709" 
d="M288 706h-198v76q0 140 67 202q64 61 205 61q225 0 251 -155q9 -55 9 -134v-756h-204v70q-58 -81 -153 -81q-151 0 -180 144q-10 49 -10 135q0 141 20 197q30 82 132 138l103 57q80 44 80 112q0 89 -61 89t-61 -86v-69zM410 514l-57 -40q-50 -35 -59 -80q-7 -36 -7 -107
q0 -127 59 -127q64 0 64 119v235zM599 1126h-188l-65 123l-80 -123h-157l157 239h182z" />
    <glyph glyph-name="atilde" unicode="&#xe3;" horiz-adv-x="709" 
d="M288 706h-198v76q0 140 67 202q64 61 205 61q225 0 251 -155q9 -55 9 -134v-756h-204v70q-58 -81 -153 -81q-151 0 -180 144q-10 49 -10 135q0 141 20 197q30 82 132 138l103 57q80 44 80 112q0 89 -61 89t-61 -86v-69zM410 514l-57 -40q-50 -35 -59 -80q-7 -36 -7 -107
q0 -127 59 -127q64 0 64 119v235zM493 1360h133q0 -220 -159 -220q-43 0 -111 24q-62 22 -84 22q-40 0 -46 -54h-144q3 225 171 225q40 0 137 -34q34 -12 55 -12q38 0 48 49z" />
    <glyph glyph-name="adieresis" unicode="&#xe4;" horiz-adv-x="709" 
d="M288 706h-198v76q0 140 67 202q64 61 205 61q225 0 251 -155q9 -55 9 -134v-756h-204v70q-58 -81 -153 -81q-151 0 -180 144q-10 49 -10 135q0 141 20 197q30 82 132 138l103 57q80 44 80 112q0 89 -61 89t-61 -86v-69zM410 514l-57 -40q-50 -35 -59 -80q-7 -36 -7 -107
q0 -127 59 -127q64 0 64 119v235zM321 1365v-239h-198v239h198zM584 1365v-239h-198v239h198z" />
    <glyph glyph-name="aring" unicode="&#xe5;" horiz-adv-x="709" 
d="M288 706h-198v76q0 140 67 202q64 61 205 61q225 0 251 -155q9 -55 9 -134v-756h-204v70q-58 -81 -153 -81q-151 0 -180 144q-10 49 -10 135q0 141 20 197q30 82 132 138l103 57q80 44 80 112q0 89 -61 89t-61 -86v-69zM410 514l-57 -40q-50 -35 -59 -80q-7 -36 -7 -107
q0 -127 59 -127q64 0 64 119v235zM356 1451q68 0 116.5 -49t48.5 -118t-49 -118t-118 -49t-118 49t-49 118q0 70 49 118.5t120 48.5zM354 1339q-55 0 -55 -55q0 -56 56 -56q55 0 55 55q0 56 -56 56z" />
    <glyph glyph-name="ae" unicode="&#xe6;" horiz-adv-x="1023" 
d="M947 474h-331v-217q0 -97 65 -97q39 0 53 29q10 20 10 76v100h203v-151q0 -225 -255 -225q-97 0 -156 30q-36 18 -77 62q-67 -92 -183 -92q-119 0 -166 82q-35 61 -35 219q0 129 24 187q29 70 129 125l105 58q77 43 77 107q0 94 -61 94t-61 -78v-78h-198v86
q0 254 271 254q97 0 164 -40q72 40 165 40q137 0 201 -70q56 -61 56 -224v-277zM744 631v157q0 93 -64 93t-64 -93v-157h128zM404 514l-53 -39q-44 -32 -56 -80q-8 -29 -8 -100q0 -135 57 -135q60 0 60 124v230z" />
    <glyph glyph-name="ccedilla" unicode="&#xe7;" horiz-adv-x="706" 
d="M419 -9l-43 -87q17 7 31 7q55 0 90 -38t35 -94q0 -71 -48.5 -117t-120.5 -46q-71 0 -145 40l20 85q59 -36 108 -36q57 0 57 64q0 58 -52 58q-23 0 -53 -14l-38 41l64 137q-186 21 -229 164q-20 66 -20 195v359q0 167 65 247q72 89 234 89q280 0 280 -276v-99h-212v85
q0 126 -75 126q-58 0 -74 -66q-6 -26 -6 -112v-341q0 -126 14 -162q15 -40 70 -40q51 0 68 40q10 24 10 85v136h212v-142q0 -100 -25 -155q-53 -116 -217 -133z" />
    <glyph glyph-name="egrave" unicode="&#xe8;" horiz-adv-x="724" 
d="M648 478h-361v-164q0 -89 15 -119q18 -36 63 -36q71 0 71 90v126h212v-119q0 -144 -70 -208q-67 -59 -212 -59q-167 0 -234 87q-57 74 -57 281v266q0 183 14 238q47 184 279 184q228 0 268 -176q12 -56 12 -150v-241zM436 635v129q0 117 -75 117q-74 0 -74 -117v-129h149
zM358 1365l83 -239h-163l-187 239h267z" />
    <glyph glyph-name="eacute" unicode="&#xe9;" horiz-adv-x="724" 
d="M648 478h-361v-164q0 -89 15 -119q18 -36 63 -36q71 0 71 90v126h212v-119q0 -144 -70 -208q-67 -59 -212 -59q-167 0 -234 87q-57 74 -57 281v266q0 183 14 238q47 184 279 184q228 0 268 -176q12 -56 12 -150v-241zM436 635v129q0 117 -75 117q-74 0 -74 -117v-129h149
zM352 1365h267l-187 -239h-163z" />
    <glyph glyph-name="ecircumflex" unicode="&#xea;" horiz-adv-x="724" 
d="M648 478h-361v-164q0 -89 15 -119q18 -36 63 -36q71 0 71 90v126h212v-119q0 -144 -70 -208q-67 -59 -212 -59q-167 0 -234 87q-57 74 -57 281v266q0 183 14 238q47 184 279 184q228 0 268 -176q12 -56 12 -150v-241zM436 635v129q0 117 -75 117q-74 0 -74 -117v-129h149
zM607 1126h-188l-65 123l-80 -123h-157l157 239h182z" />
    <glyph glyph-name="edieresis" unicode="&#xeb;" horiz-adv-x="724" 
d="M648 478h-361v-164q0 -89 15 -119q18 -36 63 -36q71 0 71 90v126h212v-119q0 -144 -70 -208q-67 -59 -212 -59q-167 0 -234 87q-57 74 -57 281v266q0 183 14 238q47 184 279 184q228 0 268 -176q12 -56 12 -150v-241zM436 635v129q0 117 -75 117q-74 0 -74 -117v-129h149
zM329 1365v-239h-198v239h198zM592 1365v-239h-198v239h198z" />
    <glyph glyph-name="igrave" unicode="&#xec;" horiz-adv-x="384" 
d="M298 1035v-1035h-212v1035h212zM188 1365l83 -239h-163l-187 239h267z" />
    <glyph glyph-name="iacute" unicode="&#xed;" horiz-adv-x="384" 
d="M298 1035v-1035h-212v1035h212zM182 1365h267l-187 -239h-163z" />
    <glyph glyph-name="icircumflex" unicode="&#xee;" horiz-adv-x="384" 
d="M298 1035v-1035h-212v1035h212zM437 1126h-188l-65 123l-80 -123h-157l157 239h182z" />
    <glyph glyph-name="idieresis" unicode="&#xef;" horiz-adv-x="384" 
d="M298 1035v-1035h-212v1035h212zM159 1365v-239h-158v239h158zM383 1365v-239h-158v239h158z" />
    <glyph glyph-name="eth" unicode="&#xf0;" horiz-adv-x="713" 
d="M325 1331l96 83l74 -85l-98 -85q62 -80 109 -157q132 -217 132 -425v-312q0 -150 -23 -211q-56 -150 -258 -150q-163 0 -234 102q-48 69 -48 259v334q0 173 13 222q37 139 181 139q49 0 88 -22q23 -13 53 -43q-55 100 -110 180l-90 -78l-74 85l95 82q-32 37 -79 85l94 84
q47 -49 79 -87zM287 710v-385q0 -89 9 -118q15 -47 61 -47q45 0 60 47q9 29 9 118v385q0 88 -9 117q-15 47 -60 47q-46 0 -61 -47q-9 -29 -9 -117z" />
    <glyph glyph-name="ntilde" unicode="&#xf1;" horiz-adv-x="750" 
d="M86 1035h205v-95q43 49 73 69q56 37 124 37q176 0 176 -244v-802h-212v690q0 78 -4 98q-12 60 -61 60q-89 0 -89 -180v-668h-212v1035zM514 1360h133q0 -220 -159 -220q-43 0 -111 24q-62 22 -84 22q-40 0 -46 -54h-144q3 225 171 225q40 0 137 -34q34 -12 55 -12
q38 0 48 49z" />
    <glyph glyph-name="ograve" unicode="&#xf2;" horiz-adv-x="713" 
d="M638 684v-334q0 -150 -23 -211q-56 -150 -258 -150q-163 0 -234 102q-48 69 -48 259v334q0 150 23 211q56 150 259 150q153 0 224 -90q57 -72 57 -271zM287 710v-385q0 -89 9 -118q15 -47 61 -47q45 0 60 47q9 29 9 118v385q0 88 -9 117q-15 47 -60 47q-46 0 -61 -47
q-9 -29 -9 -117zM353 1365l83 -239h-163l-187 239h267z" />
    <glyph glyph-name="oacute" unicode="&#xf3;" horiz-adv-x="713" 
d="M638 684v-334q0 -150 -23 -211q-56 -150 -258 -150q-163 0 -234 102q-48 69 -48 259v334q0 150 23 211q56 150 259 150q153 0 224 -90q57 -72 57 -271zM287 710v-385q0 -89 9 -118q15 -47 61 -47q45 0 60 47q9 29 9 118v385q0 88 -9 117q-15 47 -60 47q-46 0 -61 -47
q-9 -29 -9 -117zM346 1365h267l-187 -239h-163z" />
    <glyph glyph-name="ocircumflex" unicode="&#xf4;" horiz-adv-x="713" 
d="M638 684v-334q0 -150 -23 -211q-56 -150 -258 -150q-163 0 -234 102q-48 69 -48 259v334q0 150 23 211q56 150 259 150q153 0 224 -90q57 -72 57 -271zM287 710v-385q0 -89 9 -118q15 -47 61 -47q45 0 60 47q9 29 9 118v385q0 88 -9 117q-15 47 -60 47q-46 0 -61 -47
q-9 -29 -9 -117zM601 1126h-188l-65 123l-80 -123h-157l157 239h182z" />
    <glyph glyph-name="otilde" unicode="&#xf5;" horiz-adv-x="713" 
d="M638 684v-334q0 -150 -23 -211q-56 -150 -258 -150q-163 0 -234 102q-48 69 -48 259v334q0 150 23 211q56 150 259 150q153 0 224 -90q57 -72 57 -271zM287 710v-385q0 -89 9 -118q15 -47 61 -47q45 0 60 47q9 29 9 118v385q0 88 -9 117q-15 47 -60 47q-46 0 -61 -47
q-9 -29 -9 -117zM495 1360h133q0 -220 -159 -220q-43 0 -111 24q-62 22 -84 22q-40 0 -46 -54h-144q3 225 171 225q40 0 137 -34q34 -12 55 -12q38 0 48 49z" />
    <glyph glyph-name="odieresis" unicode="&#xf6;" horiz-adv-x="713" 
d="M638 684v-334q0 -150 -23 -211q-56 -150 -258 -150q-163 0 -234 102q-48 69 -48 259v334q0 150 23 211q56 150 259 150q153 0 224 -90q57 -72 57 -271zM287 710v-385q0 -89 9 -118q15 -47 61 -47q45 0 60 47q9 29 9 118v385q0 88 -9 117q-15 47 -60 47q-46 0 -61 -47
q-9 -29 -9 -117zM324 1365v-239h-198v239h198zM587 1365v-239h-198v239h198z" />
    <glyph glyph-name="divide" unicode="&#xf7;" horiz-adv-x="833" 
d="M74 606v153h684v-153h-684zM327 857v212h177v-212h-177zM504 508v-212h-177v212h177z" />
    <glyph glyph-name="oslash" unicode="&#xf8;" horiz-adv-x="713" 
d="M179 36l-53 -109l-100 51l75 153q-26 59 -26 219v334q0 150 23 211q56 150 256 150q114 0 186 -51l58 113l100 -49l-84 -162q24 -55 24 -212v-334q0 -150 -23 -211q-56 -150 -256 -150q-105 0 -180 47zM426 559l-138 -280q0 -31 4 -54q11 -65 65 -65q45 0 60 47
q9 29 9 118v234zM287 454l139 275q-1 59 -5 80q-13 65 -64 65q-47 0 -61 -47q-9 -30 -9 -117v-256z" />
    <glyph glyph-name="ugrave" unicode="&#xf9;" horiz-adv-x="754" 
d="M668 1035v-1035h-205v86q-37 -37 -65 -56q-60 -41 -131 -41q-99 0 -142 71q-39 64 -39 268v707h212v-696q0 -92 11 -120q12 -32 51 -32q67 0 87 87q9 38 9 139v622h212zM373 1365l83 -239h-163l-187 239h267z" />
    <glyph glyph-name="uacute" unicode="&#xfa;" horiz-adv-x="754" 
d="M668 1035v-1035h-205v86q-37 -37 -65 -56q-60 -41 -131 -41q-99 0 -142 71q-39 64 -39 268v707h212v-696q0 -92 11 -120q12 -32 51 -32q67 0 87 87q9 38 9 139v622h212zM367 1365h267l-187 -239h-163z" />
    <glyph glyph-name="ucircumflex" unicode="&#xfb;" horiz-adv-x="754" 
d="M668 1035v-1035h-205v86q-37 -37 -65 -56q-60 -41 -131 -41q-99 0 -142 71q-39 64 -39 268v707h212v-696q0 -92 11 -120q12 -32 51 -32q67 0 87 87q9 38 9 139v622h212zM622 1126h-188l-65 123l-80 -123h-157l157 239h182z" />
    <glyph glyph-name="udieresis" unicode="&#xfc;" horiz-adv-x="754" 
d="M668 1035v-1035h-205v86q-37 -37 -65 -56q-60 -41 -131 -41q-99 0 -142 71q-39 64 -39 268v707h212v-696q0 -92 11 -120q12 -32 51 -32q67 0 87 87q9 38 9 139v622h212zM344 1365v-239h-198v239h198zM607 1365v-239h-198v239h198z" />
    <glyph glyph-name="yacute" unicode="&#xfd;" horiz-adv-x="653" 
d="M412 1035h218l-175 -1096q-25 -156 -64 -212q-43 -62 -154 -62h-143v191h55q67 0 67 47q0 13 -10 71l-183 1061h221l48 -405q25 -214 43 -451q19 282 36 451zM316 1365h267l-187 -239h-163z" />
    <glyph glyph-name="thorn" unicode="&#xfe;" horiz-adv-x="721" 
d="M86 1365h212v-395q78 75 158 75q114 0 156 -92q34 -75 34 -255v-363q0 -154 -11 -201q-34 -145 -175 -145q-89 0 -162 78v-402h-212v1700zM298 612v-203q0 -108 5 -144q15 -105 71 -105q45 0 57 72q3 22 3 104v348q0 82 -3 104q-12 72 -57 72q-56 0 -71 -105
q-5 -35 -5 -143z" />
    <glyph glyph-name="ydieresis" unicode="&#xff;" horiz-adv-x="653" 
d="M412 1035h218l-175 -1096q-25 -156 -64 -212q-43 -62 -154 -62h-143v191h55q67 0 67 47q0 13 -10 71l-183 1061h221l48 -405q25 -214 43 -451q19 282 36 451zM294 1365v-239h-198v239h198zM557 1365v-239h-198v239h198z" />
    <glyph glyph-name="Cacute" unicode="&#x106;" horiz-adv-x="826" 
d="M420 1673h270l-194 -239h-168zM774 918h-235v77q0 116 -17 154q-20 45 -87 45q-80 0 -103 -77q-10 -35 -10 -145v-578q0 -110 10 -145q22 -78 103 -78q66 0 87 46q17 37 17 154v127h235v-38q0 -200 -20 -274q-56 -206 -323 -206q-204 0 -284 115q-44 63 -56 176
q-5 51 -5 189v446q0 200 20 274q56 205 328 205q306 0 332 -247q8 -77 8 -191v-29z" />
    <glyph glyph-name="cacute" unicode="&#x107;" horiz-adv-x="706" 
d="M343 1365h267l-187 -239h-163zM654 670h-212v85q0 126 -75 126q-58 0 -74 -66q-6 -26 -6 -112v-341q0 -126 14 -162q15 -40 70 -40q51 0 68 40q10 24 10 85v136h212v-142q0 -127 -45 -191q-69 -99 -247 -99q-151 0 -225 80q-69 75 -69 281v359q0 167 65 247q72 89 234 89
q280 0 280 -276v-99z" />
    <glyph glyph-name="Ccaron" unicode="&#x10c;" horiz-adv-x="826" 
d="M180 1673h186l64 -122l76 122h169l-158 -239h-186zM774 918h-235v77q0 116 -17 154q-20 45 -87 45q-80 0 -103 -77q-10 -35 -10 -145v-578q0 -110 10 -145q22 -78 103 -78q66 0 87 46q17 37 17 154v127h235v-38q0 -200 -20 -274q-56 -206 -323 -206q-204 0 -284 115
q-44 63 -56 176q-5 51 -5 189v446q0 200 20 274q56 205 328 205q306 0 332 -247q8 -77 8 -191v-29z" />
    <glyph glyph-name="ccaron" unicode="&#x10d;" horiz-adv-x="706" 
d="M108 1365h188l65 -124l80 124h157l-157 -239h-182zM654 670h-212v85q0 126 -75 126q-58 0 -74 -66q-6 -26 -6 -112v-341q0 -126 14 -162q15 -40 70 -40q51 0 68 40q10 24 10 85v136h212v-142q0 -127 -45 -191q-69 -99 -247 -99q-151 0 -225 80q-69 75 -69 281v359
q0 167 65 247q72 89 234 89q280 0 280 -276v-99z" />
    <glyph glyph-name="dcroat" unicode="&#x111;" horiz-adv-x="726" 
d="M639 1253h61v-113h-61v-1140h-205v70q-74 -81 -162 -81q-108 0 -156 85q-41 73 -41 290v312q0 186 19 243q42 126 180 126q74 0 153 -70v165h-177v113h177v112h212v-112zM287 662v-303q0 -127 9 -161q10 -38 48 -38q83 0 83 227v246q0 228 -83 228q-38 0 -48 -38
q-9 -34 -9 -161z" />
    <glyph glyph-name="Gbreve" unicode="&#x11e;" horiz-adv-x="851" 
d="M564 1679h148q-19 -91 -70 -153q-83 -100 -216 -100q-228 0 -287 253h148q44 -96 139 -96q94 0 138 96zM437 745h321v-745h-194l-6 82q-69 -96 -193 -96q-147 0 -215 108q-45 71 -57 178q-7 55 -7 190v451q0 219 27 294q64 178 317 178q190 0 266 -95q62 -78 62 -264v-73
h-216v83q0 147 -107 147q-89 0 -109 -115q-4 -25 -4 -183v-386q0 -156 5 -188q21 -123 107 -123q65 0 90 55q18 40 18 154v143h-105v205z" />
    <glyph glyph-name="gbreve" unicode="&#x11f;" horiz-adv-x="722" 
d="M481 1372h156q-19 -92 -67 -153q-78 -100 -209 -100q-139 0 -219 115q-40 58 -56 138h156q38 -96 119 -96q83 0 120 96zM431 1035h205v-979q0 -175 -21 -239q-50 -152 -255 -152q-181 0 -241 105q-28 49 -28 151h211l1 -16q3 -53 13 -65q16 -20 46 -20q62 0 62 112v130
q-67 -73 -151 -73q-113 0 -159 83q-39 71 -39 260v399q0 226 110 289q45 26 98 26q54 0 95 -30q23 -17 53 -53v72zM287 710v-385q0 -152 54 -152q83 0 83 238v213q0 238 -83 238q-54 0 -54 -152z" />
    <glyph glyph-name="Idotaccent" unicode="&#x130;" horiz-adv-x="441" 
d="M319 1673v-239h-199v239h199zM338 1365v-1365h-236v1365h236z" />
    <glyph glyph-name="dotlessi" unicode="&#x131;" horiz-adv-x="384" 
d="M298 1035v-1035h-212v1035h212z" />
    <glyph glyph-name="Lslash" unicode="&#x141;" horiz-adv-x="751" 
d="M337 837l225 169v-234l-225 -169v-391h389v-212h-624v446l-75 -56v234l75 56v685h235v-528z" />
    <glyph glyph-name="lslash" unicode="&#x142;" horiz-adv-x="433" 
d="M322 863l70 53v-141l-70 -53v-722h-212v577l-70 -53v141l70 53v647h212v-502z" />
    <glyph glyph-name="OE" unicode="&#x152;" horiz-adv-x="1229" 
d="M1150 1365v-218h-362v-347h338v-198h-338v-384h386v-218h-594q-13 0 -66.5 -2t-83.5 -2q-189 0 -274 117q-70 97 -70 373v403q0 204 26 289q62 201 304 201q32 0 109 -9q43 -5 87 -5h538zM322 880v-385q0 -200 17 -248q21 -60 98 -60t98 60q17 48 17 248v385
q0 202 -17 249q-21 59 -98 59t-98 -59q-17 -47 -17 -249z" />
    <glyph glyph-name="oe" unicode="&#x153;" horiz-adv-x="1046" 
d="M527 32q-73 -43 -172 -43q-161 0 -232 102q-48 69 -48 259v335q0 149 23 210q56 150 256 150q103 0 176 -44q67 44 177 44q147 0 210 -83q54 -71 54 -243v-241h-333v-164q0 -71 5 -95q13 -60 58 -60q58 0 58 90v126h212v-119q0 -140 -63 -203.5t-201 -63.5
q-112 0 -180 43zM287 710v-385q0 -90 9 -119q15 -47 61 -47q45 0 60 47q9 29 9 119v385q0 89 -9 118q-15 46 -60 46q-47 0 -61 -46q-9 -29 -9 -118zM759 635v129q0 117 -60 117q-61 0 -61 -117v-129h121z" />
    <glyph glyph-name="Scedilla" unicode="&#x15e;" horiz-adv-x="807" 
d="M466 -17l-39 -79q17 6 31 6q56 0 91 -37.5t35 -94.5q0 -71 -49 -116.5t-121 -45.5q-71 0 -146 40l20 85q59 -36 110 -36q58 0 58 63q0 58 -54 58q-24 0 -53 -13l-39 41l59 126q-128 9 -203 68q-109 85 -109 305v149h225v-110q0 -211 128 -211q114 0 114 148q0 72 -27 116
q-20 34 -83 89l-128 112q-104 91 -127 117q-62 70 -83 142q-16 54 -16 140q0 340 329 340q325 0 325 -357v-115h-225v80q0 190 -106 190q-98 0 -98 -121q0 -99 128 -210l135 -117q126 -109 162 -170q53 -89 53 -233q0 -218 -144 -302q-60 -35 -153 -47z" />
    <glyph glyph-name="scedilla" unicode="&#x15f;" horiz-adv-x="649" 
d="M392 -8l-44 -88q17 6 31 6q56 0 91 -37.5t35 -94.5q0 -71 -49 -116.5t-121 -45.5q-71 0 -145 40l19 85q59 -36 110 -36q58 0 58 63q0 58 -54 58q-23 0 -53 -13l-38 41l63 136q-181 15 -229 135q-22 55 -22 151v121h198v-109q0 -142 87 -142q86 0 86 116q0 37 -10 58
q-15 32 -48 63l-203 193q-102 97 -102 226q0 243 275 243q269 0 269 -250v-88h-191v63q0 118 -81 118q-74 0 -74 -79q0 -48 58 -102l196 -184q56 -52 80 -99q29 -56 29 -166q0 -106 -27 -158q-45 -87 -194 -108z" />
    <glyph glyph-name="Scaron" unicode="&#x160;" horiz-adv-x="807" 
d="M714 913h-225v80q0 190 -106 190q-98 0 -98 -121q0 -99 128 -210l135 -117q125 -108 162 -170q53 -88 53 -233q0 -352 -359 -352q-186 0 -270 97q-77 90 -77 277v148h225v-110q0 -210 128 -210q114 0 114 147q0 71 -27 116q-20 34 -83 89l-128 112q-104 91 -127 117
q-62 70 -83 142q-16 54 -16 140q0 340 329 340q325 0 325 -357v-115zM143 1673h186l64 -122l76 122h169l-158 -239h-186z" />
    <glyph glyph-name="scaron" unicode="&#x161;" horiz-adv-x="649" 
d="M596 707h-191v63q0 118 -81 118q-74 0 -74 -79q0 -48 58 -102l196 -184q56 -52 80 -99q29 -56 29 -165q0 -136 -50 -192q-70 -78 -231 -78q-288 0 -288 287v121h198v-109q0 -142 87 -142q86 0 86 116q0 37 -10 58q-15 32 -48 63l-203 193q-102 97 -102 226q0 243 275 243
q269 0 269 -250v-88zM80 1365h188l65 -124l80 124h157l-157 -239h-182z" />
    <glyph glyph-name="Ydieresis" unicode="&#x178;" horiz-adv-x="819" 
d="M522 536v-536h-236v536l-282 829h242l83 -249q38 -114 68 -234l11 -44q45 174 81 278l85 249h241zM376 1673v-239h-199v239h199zM641 1673v-239h-199v239h199z" />
    <glyph glyph-name="Zcaron" unicode="&#x17d;" horiz-adv-x="810" 
d="M759 1365v-165l-434 -988h440v-212h-720v161l435 992h-387v212h666zM158 1673h186l64 -122l76 122h169l-158 -239h-186z" />
    <glyph glyph-name="zcaron" unicode="&#x17e;" horiz-adv-x="631" 
d="M591 1035v-182l-323 -655h331v-198h-568v182l322 655h-293v198h531zM70 1365h188l65 -124l80 124h157l-157 -239h-182z" />
    <glyph glyph-name="florin" unicode="&#x192;" horiz-adv-x="833" 
d="M646 1017l-21 -109h-89l-241 -1243h-212l242 1243h-85l22 109h84l56 291q14 73 29 99q47 81 169 81h138l-35 -180h-30q-59 0 -73 -70l-43 -221h89z" />
    <glyph glyph-name="circumflex" unicode="&#x2c6;" 
d="M757 1126h-188l-65 123l-80 -123h-157l157 239h182z" />
    <glyph glyph-name="caron" unicode="&#x2c7;" 
d="M267 1365h188l65 -124l80 124h157l-157 -239h-182z" />
    <glyph glyph-name="breve" unicode="&#x2d8;" 
d="M632 1372h156q-19 -92 -67 -153q-78 -100 -209 -100q-139 0 -219 115q-40 58 -56 138h156q38 -96 119 -96q83 0 120 96z" />
    <glyph glyph-name="dotaccent" unicode="&#x2d9;" 
d="M611 1365v-239h-198v239h198z" />
    <glyph glyph-name="ring" unicode="&#x2da;" 
d="M515 1451q68 0 116.5 -49t48.5 -118t-49 -118t-118 -49q-70 0 -119 48.5t-49 118.5q0 71 49.5 119t120.5 48zM512 1339q-55 0 -55 -55q0 -56 56 -56t56 55q0 56 -57 56z" />
    <glyph glyph-name="ogonek" unicode="&#x2db;" 
d="M618 0q-101 -82 -101 -173q0 -74 59 -74q33 0 67 12v-105q-42 -23 -90 -23q-75 0 -123.5 49t-48.5 125q0 73 53 134q29 33 69 55h115z" />
    <glyph glyph-name="tilde" unicode="&#x2dc;" 
d="M651 1360h133q0 -220 -159 -220q-43 0 -111 24q-62 22 -84 22q-40 0 -46 -54h-144q3 225 171 225q40 0 137 -34q34 -12 55 -12q38 0 48 49z" />
    <glyph glyph-name="hungarumlaut" unicode="&#x2dd;" 
d="M345 1365h267l-187 -239h-163zM686 1365h267l-187 -239h-163z" />
    <glyph glyph-name="Delta" unicode="&#x394;" horiz-adv-x="1365" 
d="M44 0l521 1365h228l528 -1365h-1277zM347 198h667l-334 910z" />
    <glyph glyph-name="Delta" unicode="&#x2206;" horiz-adv-x="1365" 
d="M44 0l521 1365h228l528 -1365h-1277zM347 198h667l-334 910z" />
    <glyph glyph-name="Omega" unicode="&#x3a9;" horiz-adv-x="1365" 
d="M59 0v190h320q-133 81 -204 175q-116 154 -116 383q0 283 190 472q178 178 434 178q257 0 435 -178q189 -189 189 -472q0 -243 -128 -399q-70 -85 -190 -159h318v-190h-543v170q129 73 197 157q129 160 129 396q0 188 -106 330q-117 155 -299 155q-155 0 -272 -118
q-137 -138 -137 -369q0 -369 328 -551v-170h-545z" />
    <glyph glyph-name="Omega" unicode="&#x2126;" horiz-adv-x="1365" 
d="M59 0v190h320q-133 81 -204 175q-116 154 -116 383q0 283 190 472q178 178 434 178q257 0 435 -178q189 -189 189 -472q0 -243 -128 -399q-70 -85 -190 -159h318v-190h-543v170q129 73 197 157q129 160 129 396q0 188 -106 330q-117 155 -299 155q-155 0 -272 -118
q-137 -138 -137 -369q0 -369 328 -551v-170h-545z" />
    <glyph glyph-name="pi" unicode="&#x3c0;" horiz-adv-x="1283" 
d="M223 0v792h-155v190h1147v-190h-153v-792h-212v792h-415v-792h-212z" />
    <glyph glyph-name="endash" unicode="&#x2013;" horiz-adv-x="833" 
d="M760 632v-191h-688v191h688z" />
    <glyph glyph-name="emdash" unicode="&#x2014;" horiz-adv-x="911" 
d="M911 632v-191h-911v191h911z" />
    <glyph glyph-name="quoteleft" unicode="&#x2018;" horiz-adv-x="384" 
d="M298 921h-212v245l212 220v-119l-89 -93h89v-253z" />
    <glyph glyph-name="quoteright" unicode="&#x2019;" horiz-adv-x="384" 
d="M86 1365h212v-245l-212 -220v119l89 93h-89v253z" />
    <glyph glyph-name="quotesinglbase" unicode="&#x201a;" horiz-adv-x="384" 
d="M86 253h212v-245l-212 -220v119l89 93h-89v253z" />
    <glyph glyph-name="quotedblleft" unicode="&#x201c;" horiz-adv-x="666" 
d="M580 921h-212v245l212 220v-119l-89 -93h89v-253zM298 921h-212v245l212 220v-119l-89 -93h89v-253z" />
    <glyph glyph-name="quotedblright" unicode="&#x201d;" horiz-adv-x="666" 
d="M86 1365h212v-245l-212 -220v119l89 93h-89v253zM368 1365h212v-245l-212 -220v119l89 93h-89v253z" />
    <glyph glyph-name="quotedblbase" unicode="&#x201e;" horiz-adv-x="666" 
d="M86 253h212v-245l-212 -220v119l89 93h-89v253zM368 253h212v-245l-212 -220v119l89 93h-89v253z" />
    <glyph glyph-name="dagger" unicode="&#x2020;" horiz-adv-x="902" 
d="M862 885v-212h-303v-1008h-218v1008h-300v212h300v480h218v-480h303z" />
    <glyph glyph-name="daggerdbl" unicode="&#x2021;" horiz-adv-x="902" 
d="M862 885v-212h-303v-322h303v-212h-303v-474h-218v474h-300v212h300v322h-300v212h300v480h218v-480h303z" />
    <glyph glyph-name="bullet" unicode="&#x2022;" horiz-adv-x="1365" 
d="M689 978q116 0 198 -84t82 -200q0 -119 -82.5 -201.5t-201.5 -82.5q-118 0 -201 83t-83 201q0 121 83.5 202.5t204.5 81.5z" />
    <glyph glyph-name="ellipsis" unicode="&#x2026;" horiz-adv-x="1171" 
d="M304 253v-253h-218v253h218zM694 253v-253h-218v253h218zM1085 253v-253h-218v253h218z" />
    <glyph glyph-name="perthousand" unicode="&#x2030;" horiz-adv-x="1600" 
d="M452 1096v-146q0 -133 -15 -176q-38 -107 -177 -107q-105 0 -152 60q-40 51 -40 223v146q0 135 15 177q38 106 177 106q106 0 152 -60q40 -52 40 -223zM205 1140v-234q0 -119 55 -119t55 119v234q0 120 -55 120t-55 -120zM962 1365l-681 -1365h-123l682 1365h122z
M1054 415v-146q0 -137 -14 -177q-37 -106 -178 -106q-105 0 -152 60q-40 51 -40 223v146q0 135 15 177q37 106 177 106q106 0 152 -60q40 -52 40 -223zM807 459v-234q0 -119 55 -119t55 119v234q0 119 -55 119t-55 -119zM1532 415v-146q0 -134 -15 -177q-37 -106 -177 -106
q-105 0 -152 60q-40 51 -40 223v146q0 135 15 177q37 106 177 106q106 0 152 -60q40 -52 40 -223zM1285 459v-234q0 -119 55 -119t55 119v234q0 119 -55 119t-55 -119z" />
    <glyph glyph-name="guilsinglleft" unicode="&#x2039;" horiz-adv-x="483" 
d="M408 306h-199l-157 195l157 195h199l-160 -195z" />
    <glyph glyph-name="guilsinglright" unicode="&#x203a;" horiz-adv-x="483" 
d="M75 696h199l157 -195l-157 -195h-199l161 195z" />
    <glyph glyph-name="overscore" unicode="&#x203e;" 
d="M0 1800h1024v-190h-1024v190z" />
    <glyph glyph-name="fraction" unicode="&#x2044;" horiz-adv-x="258" 
d="M531 1365l-681 -1365h-123l681 1365h123z" />
    <glyph glyph-name="franc" unicode="&#x20a3;" horiz-adv-x="948" 
d="M711 1365v-198h-397v-364h144v-184h-144v-619h-212v1365h609zM513 803h192v-145q43 99 91 128q45 27 129 26v-231q-36 3 -60 3q-130 0 -147 -116q-7 -47 -7 -115v-353h-198v803z" />
    <glyph glyph-name="trademark" unicode="&#x2122;" horiz-adv-x="1146" 
d="M302 1233v-646h-153v646h-138v135h428v-135h-137zM824 587h-92l-97 517q1 -50 1 -92v-425h-147v781h226l45 -261q6 -36 17 -120q8 64 18 120l45 261h228v-781h-147v406q0 52 2 117q-7 -42 -20 -110z" />
    <glyph glyph-name="partialdiff" unicode="&#x2202;" 
d="M150 1181l27 185q356 -44 545 -219q255 -237 255 -620q0 -364 -255 -497q-96 -50 -211 -50q-145 0 -264 83q-200 140 -200 383q0 193 132 323q120 118 292 118q110 0 189 -47q37 -22 85 -72q-57 128 -113 189q-131 144 -347 200q-59 15 -135 24zM511 731q-112 0 -184 -94
q-65 -85 -65 -201q0 -137 85 -225q69 -72 164 -72q115 0 185 97q64 87 64 206q0 146 -89 228q-66 61 -160 61z" />
    <glyph glyph-name="product" unicode="&#x220f;" horiz-adv-x="1469" 
d="M79 1536h1311v-197h-167v-1653h167v-198h-544v198h165v1653h-553v-1653h164v-198h-543v198h167v1653h-167v197z" />
    <glyph glyph-name="summation" unicode="&#x2211;" horiz-adv-x="1365" 
d="M1248 1536v-493h-190l-22 295h-749l513 -789l-513 -863h769l12 292h200v-490h-1219v220l503 841l-503 768v219h1199z" />
    <glyph glyph-name="minus" unicode="&#x2212;" horiz-adv-x="833" 
d="M758 759v-153h-684v153h684z" />
    <glyph glyph-name="radical" unicode="&#x221a;" horiz-adv-x="1365" 
d="M1365 1700v-198h-382l-386 -1502h-274l-140 581h-183v198h356l56 -219q16 -64 41 -293h17q37 280 130 646l200 787h565z" />
    <glyph glyph-name="infinity" unicode="&#x221e;" horiz-adv-x="1365" 
d="M688 558q-145 -186 -328 -186q-157 0 -250 109q-74 87 -74 217q0 141 91.5 232t232.5 91q181 0 319 -184q136 184 328 184q165 0 258 -119q65 -84 65 -206q0 -154 -102 -244q-90 -80 -218 -80q-187 0 -322 186zM788 697q94 -145 193 -145q61 0 100.5 42t39.5 103
q0 71 -52 112q-40 32 -90 32q-78 0 -146 -82q-25 -30 -45 -62zM578 696q-93 145 -192 145q-61 0 -101 -41.5t-40 -103.5q0 -72 52 -113q40 -32 90 -32q77 0 146 83q24 29 45 62z" />
    <glyph glyph-name="integral" unicode="&#x222b;" 
d="M143 -491l41 188q62 -19 105 -19q101 0 113 105q4 34 4 155v1107q0 103 3 184q11 307 305 307q67 0 166 -22l-41 -188q-61 20 -104 20q-102 0 -114 -105q-4 -34 -4 -260v-1003q0 -217 -17 -290q-29 -123 -147 -171q-67 -27 -155 -27q-83 0 -155 19z" />
    <glyph glyph-name="approxequal" unicode="&#x2248;" 
d="M136 712l-119 78q36 84 75 140q85 122 221 122q73 0 221 -61q102 -42 126 -48q33 -8 60 -8q67 0 110 44q25 25 55 77l123 -72q-67 -139 -133 -190q-82 -63 -179 -63q-63 0 -294 93q-59 24 -106 24q-63 0 -108 -53q-22 -26 -52 -83zM136 331l-119 77q37 86 75 141
q84 122 221 122q73 0 221 -61q101 -42 126 -48q31 -8 61 -8q66 0 109 44q25 26 55 76l123 -71q-67 -139 -133 -190q-82 -63 -180 -63q-62 0 -293 93q-60 24 -106 24q-63 0 -108 -53q-23 -27 -52 -83z" />
    <glyph glyph-name="approxequal" unicode="&#x22f2;" 
d="M136 712l-119 78q36 84 75 140q85 122 221 122q73 0 221 -61q102 -42 126 -48q33 -8 60 -8q67 0 110 44q25 25 55 77l123 -72q-67 -139 -133 -190q-82 -63 -179 -63q-63 0 -294 93q-59 24 -106 24q-63 0 -108 -53q-22 -26 -52 -83zM136 331l-119 77q37 86 75 141
q84 122 221 122q73 0 221 -61q101 -42 126 -48q31 -8 61 -8q66 0 109 44q25 26 55 76l123 -71q-67 -139 -133 -190q-82 -63 -180 -63q-62 0 -293 93q-60 24 -106 24q-63 0 -108 -53q-23 -27 -52 -83z" />
    <glyph glyph-name="notequal" unicode="&#x2260;" 
d="M546 963l111 225l138 -65l-79 -160h240v-190h-326l-80 -160h406v-190h-492l-106 -214l-137 66l72 148h-225v190h311l80 160h-391v190h478z" />
    <glyph glyph-name="lessequal" unicode="&#x2264;" 
d="M955 1314v-201l-663 -300l663 -300v-201l-887 408v179zM955 254v-198h-887v198h887z" />
    <glyph glyph-name="greaterequal" unicode="&#x2265;" 
d="M68 312v201l663 301l-663 299v201l887 -415v-180zM68 56v198h887v-198h-887z" />
    <glyph glyph-name="lozenge" unicode="&#x25ca;" horiz-adv-x="1365" 
d="M683 1419l531 -736l-531 -736l-532 736zM683 1238l-404 -555l404 -554l403 554z" />
    <glyph glyph-name="middot" unicode="&#x25ef;" horiz-adv-x="390" 
d="M304 674v-253h-218v253h218z" />
    <glyph glyph-name="apple" unicode="&#xf000;" horiz-adv-x="1365" 
d="M984 1416v-20q0 -162 -127 -266q-79 -65 -146 -68q-20 -1 -31 -1q0 144 82 239q89 104 222 116zM1277 936q-64 -50 -98 -93q-67 -84 -67 -192q0 -150 111 -250q35 -31 92 -56q-64 -159 -139 -256q-111 -143 -208 -143q-38 0 -82 18l-83 34q-17 7 -75 7q-73 0 -98 -10
l-87 -35q-42 -17 -79 -17q-114 0 -226 167q-172 257 -172 526q0 180 99 305q106 136 282 136q67 0 160 -36q68 -26 101 -26q30 0 85 21q67 26 102.5 35.5t85.5 9.5q188 0 296 -145z" />
    <glyph glyph-name="fi" unicode="&#xf001;" horiz-adv-x="771" 
d="M408 1035v-182h-88v-853h-212v853h-85v182h85v150q0 72 10 99q30 81 153 81h137v-180h-29q-59 0 -59 -70v-80h88zM685 1035v-1035h-212v1035h212zM685 1365v-198h-212v198h212z" />
    <glyph glyph-name="fl" unicode="&#xf002;" horiz-adv-x="771" 
d="M408 1035v-182h-88v-853h-212v853h-85v182h85v150q0 72 10 99q30 81 153 81h137v-180h-29q-59 0 -59 -70v-80h88zM685 1365v-1365h-212v1365h212z" />
    <glyph glyph-name="HT" horiz-adv-x="382" 
 />
    <glyph glyph-name="nonmarkingreturn" horiz-adv-x="382" 
 />
    <glyph glyph-name="glyph172" horiz-adv-x="833" 
 />
    <glyph glyph-name="glyph262" 
d="M479 1365v-239h-158v239h158zM703 1365v-239h-158v239h158z" />
    <glyph glyph-name="glyph263" 
d="M265 1673h186l64 -122l76 122h169l-158 -239h-186z" />
    <glyph glyph-name="glyph264" 
d="M650 1679h148q-19 -91 -70 -153q-83 -100 -216 -100q-228 0 -287 253h148q44 -96 139 -96q94 0 138 96z" />
    <glyph glyph-name="glyph265" 
d="M760 1434h-187l-63 122l-76 -122h-169l158 239h186z" />
    <glyph glyph-name="glyph266" 
d="M506 1673l92 -239h-169l-193 239h270z" />
    <glyph glyph-name="glyph267" 
d="M519 1673h270l-194 -239h-168z" />
    <glyph glyph-name="glyph268" 
d="M479 1673v-239h-199v239h199zM744 1673v-239h-199v239h199z" />
    <glyph glyph-name="glyph269" 
d="M652 1666h134q-4 -86 -23 -128q-41 -91 -142 -91q-34 0 -101 23.5t-89 23.5q-38 0 -50 -54h-144q10 225 164 225q53 0 144 -34q40 -15 58 -15q43 0 49 50z" />
    <glyph glyph-name="glyph270" 
d="M479 1673v-239h-172v239h172zM717 1673v-239h-172v239h172z" />
    <glyph glyph-name="glyph271" 
d="M515 1768q68 0 116.5 -49t48.5 -118t-49 -118t-118 -49q-70 0 -119 48.5t-49 118.5q0 71 49.5 119t120.5 48zM512 1657q-55 0 -55 -55q0 -56 56 -56t56 55q0 56 -57 56z" />
    <glyph glyph-name="glyph272" 
d="M611 1673v-239h-199v239h199z" />
    <glyph glyph-name="glyph273" horiz-adv-x="382" 
 />
  </font>
</defs>
</svg>
